<?xml version="1.0" encoding="UTF-8"?>
<svg version="1.1" xmlns="http://www.w3.org/2000/svg" width="500" height="500">
<path d="M0 0 C165 0 330 0 500 0 C500 165 500 330 500 500 C335 500 170 500 0 500 C0 335 0 170 0 0 Z " fill="#FEFEFE" transform="translate(0,0)"/>
<path d="M0 0 C0.88845108 -0.01283524 1.77690216 -0.02567047 2.692276 -0.03889465 C3.65161545 -0.04628159 4.6109549 -0.05366852 5.59936523 -0.0612793 C6.59242172 -0.06935104 7.58547821 -0.07742279 8.60862732 -0.08573914 C10.71432757 -0.09957661 12.82005022 -0.11030027 14.92578125 -0.11816406 C18.12145615 -0.13530228 21.31607614 -0.17918307 24.51147461 -0.22338867 C26.56159724 -0.23352266 28.61172864 -0.24203655 30.66186523 -0.2487793 C31.60703506 -0.26628738 32.5522049 -0.28379547 33.52601624 -0.30183411 C42.39766546 -0.27332873 50.57971139 2.21655743 57.12280273 8.43481445 C62.3149559 14.5772556 63.2649831 21.07443432 62.97045898 28.9621582 C61.97358228 37.50829908 58.91896246 42.67992073 52.20483398 47.99731445 C51.67374023 48.38661133 51.14264648 48.7759082 50.59545898 49.17700195 C51.00795898 49.80864258 51.42045898 50.4402832 51.84545898 51.09106445 C53.78977385 54.1030165 55.69700367 57.13592493 57.59545898 60.17700195 C57.96396973 60.75981934 58.33248047 61.34263672 58.7121582 61.94311523 C59.83875087 63.73894193 60.9381361 65.54916725 62.03295898 67.36450195 C62.71229492 68.47180664 63.39163086 69.57911133 64.09155273 70.7199707 C66.31884708 75.83985511 66.35642269 80.02093813 64.47045898 85.36450195 C62.23725728 88.71430452 60.26686524 91.44841229 56.59545898 93.17700195 C51.7886846 93.92519297 47.37884414 93.81109445 42.78295898 92.17700195 C35.87230926 85.85869364 31.20400257 77.02401562 26.27514648 69.15942383 C25.72858398 68.3028418 25.18202148 67.44625977 24.61889648 66.5637207 C24.13340332 65.7924585 23.64791016 65.02119629 23.14770508 64.2265625 C20.70963746 61.0073776 18.41398209 59.44984299 14.59545898 58.17700195 C14.61640625 58.93319824 14.63735352 59.68939453 14.65893555 60.46850586 C14.74236483 63.91286795 14.79420522 67.35701702 14.84545898 70.80200195 C14.89573242 72.58670898 14.89573242 72.58670898 14.94702148 74.4074707 C15.07059341 85.46715768 15.07059341 85.46715768 10.59545898 90.17700195 C7.33940381 93.42618781 4.7487126 93.60922427 0.22045898 93.61450195 C-5.11501635 93.47094656 -8.53271052 93.15072273 -12.40454102 89.17700195 C-14.89650371 84.25497647 -15.78166299 80.66097938 -15.79272461 75.06762695 C-15.80061005 74.05883484 -15.80061005 74.05883484 -15.80865479 73.02966309 C-15.82175152 70.82853277 -15.81315424 68.62813835 -15.80297852 66.42700195 C-15.80500224 64.88435733 -15.80791615 63.34171364 -15.81167603 61.79907227 C-15.81608537 58.57469525 -15.80971343 55.3505685 -15.7956543 52.1262207 C-15.77856302 48.00722326 -15.78841171 43.88881238 -15.80637169 39.76983643 C-15.8172473 36.58695104 -15.81374595 33.40420316 -15.80598831 30.22131348 C-15.80399673 28.70316497 -15.80640873 27.18500371 -15.81342697 25.66687012 C-15.82110426 23.53970589 -15.8093515 21.41347242 -15.79272461 19.28637695 C-15.79033783 18.07949219 -15.78795105 16.87260742 -15.78549194 15.62915039 C-15.21036806 10.41742139 -13.78870937 6.49196189 -9.90454102 2.80200195 C-6.52088556 0.60262591 -3.9481499 0.04980567 0 0 Z " fill="#FCFCFC" transform="translate(52.404541015625,175.822998046875)"/>
<path d="M0 0 C1.35496631 0.7321394 2.69054864 1.50176026 4 2.3125 C4.62261719 2.663125 5.24523437 3.01375 5.88671875 3.375 C12.05765691 7.2301631 15.66974378 13.04732565 18.375 19.6875 C20.07997993 29.5763836 19.41663572 38.94734852 13.5390625 47.41796875 C12.09364407 49.13853028 10.60111616 50.73707019 9 52.3125 C8.21625 53.116875 7.4325 53.92125 6.625 54.75 C6.08875 55.265625 5.5525 55.78125 5 56.3125 C5.99 56.8075 5.99 56.8075 7 57.3125 C7 57.9725 7 58.6325 7 59.3125 C6.01 59.3125 5.02 59.3125 4 59.3125 C4 60.3025 4 61.2925 4 62.3125 C4.99 62.3125 5.98 62.3125 7 62.3125 C7 62.9725 7 63.6325 7 64.3125 C6.01 64.3125 5.02 64.3125 4 64.3125 C4 65.6325 4 66.9525 4 68.3125 C4.99 68.3125 5.98 68.3125 7 68.3125 C7 68.9725 7 69.6325 7 70.3125 C6.01 70.3125 5.02 70.3125 4 70.3125 C4 72.6225 4 74.9325 4 77.3125 C3.113125 77.745625 2.22625 78.17875 1.3125 78.625 C-1.91970316 80.14306368 -1.91970316 80.14306368 -4.1875 82 C-8.66621698 84.09006793 -13.14457805 83.86574148 -18 83.3125 C-21.1875 81.9375 -21.1875 81.9375 -23 80.3125 C-23 79.6525 -23 78.9925 -23 78.3125 C-24.65 77.9825 -26.3 77.6525 -28 77.3125 C-28 75.6625 -28 74.0125 -28 72.3125 C-28.99 71.9825 -29.98 71.6525 -31 71.3125 C-30.01 71.3125 -29.02 71.3125 -28 71.3125 C-28 69.9925 -28 68.6725 -28 67.3125 C-28.99 67.3125 -29.98 67.3125 -31 67.3125 C-31 66.6525 -31 65.9925 -31 65.3125 C-30.01 65.3125 -29.02 65.3125 -28 65.3125 C-28 63.9925 -28 62.6725 -28 61.3125 C-28.99 61.3125 -29.98 61.3125 -31 61.3125 C-31 60.6525 -31 59.9925 -31 59.3125 C-30.01 59.3125 -29.02 59.3125 -28 59.3125 C-30.00684109 55.74408569 -32.19775989 52.85238012 -35 49.875 C-41.92522229 42.21278158 -43.33465617 35.41640924 -43.2109375 25.30859375 C-42.68095686 17.78090576 -39.17388158 11.72105007 -34 6.3125 C-24.26143694 -1.45086949 -12.01252459 -5.11567857 0 0 Z " fill="#FEBC59" transform="translate(455,180.6875)"/>
<path d="M0 0 C4.25666533 2.62519081 7.37581669 5.82668909 10.1875 9.9375 C10.80625 10.80375 11.425 11.67 12.0625 12.5625 C13.81638036 17.82414108 14.29469329 23.4816594 13.1875 28.9375 C10.78125 30.76953125 10.78125 30.76953125 8.1875 31.9375 C7.1975 32.4325 7.1975 32.4325 6.1875 32.9375 C6.8475 33.47375 7.5075 34.01 8.1875 34.5625 C10.1875 36.9375 10.1875 36.9375 10.75 39.875 C9.96068557 44.17237858 8.70021998 45.32017923 5.1875 47.9375 C-0.53221045 50.60611871 -5.45890428 52.19014666 -11.8125 51.9375 C-11.79678955 52.51717529 -11.7810791 53.09685059 -11.76489258 53.6940918 C-11.70227209 56.33762739 -11.66342482 58.98100655 -11.625 61.625 C-11.59986328 62.53701172 -11.57472656 63.44902344 -11.54882812 64.38867188 C-11.49423334 69.39319361 -11.48319937 72.90392424 -14.8125 76.9375 C-18.31711275 79.841322 -21.43458133 80.52290729 -25.87890625 80.36328125 C-29.22932914 79.62551136 -30.79226332 77.56992962 -32.8125 74.9375 C-33.86837095 71.76988716 -33.9229146 69.52777981 -33.91796875 66.203125 C-33.93279297 65.07132812 -33.94761719 63.93953125 -33.96289062 62.7734375 C-33.98746725 60.39855895 -33.99293316 58.02339945 -33.97851562 55.6484375 C-34.05960231 48.11655065 -34.05960231 48.11655065 -37.74609375 41.80078125 C-38.76652188 40.84452903 -39.78850053 39.88992687 -40.8125 38.9375 C-44.80488238 32.41660879 -44.58317944 25.41563124 -43.8125 17.9375 C-41.50746393 9.67483224 -36.95584603 4.34498051 -29.71484375 -0.046875 C-21.83078578 -4.25602299 -7.94846271 -3.71822259 0 0 Z " fill="#5EDCE0" transform="translate(166.8125,217.0625)"/>
<path d="M0 0 C3.73119389 1.65830839 5.94648272 3.48620376 8 7 C8.36989022 9.81229514 8.60038059 12.43230942 8.6875 15.25 C8.73874023 16.36761719 8.73874023 16.36761719 8.79101562 17.5078125 C8.87314054 19.33802492 8.93825653 21.16898669 9 23 C9.51820313 22.67644531 10.03640625 22.35289062 10.5703125 22.01953125 C13.76530884 20.67886558 16.41680204 20.69865548 19.875 20.6875 C21.06867188 20.67074219 22.26234375 20.65398437 23.4921875 20.63671875 C27.34704777 21.03594147 29.71503717 21.97482755 33 24 C37.57096264 29.80635795 38.15849762 34.23520767 38.203125 41.43359375 C38.20882507 42.14854507 38.21452515 42.8634964 38.22039795 43.60011292 C38.22982114 45.10880057 38.23637125 46.61750856 38.24023438 48.1262207 C38.24995272 50.42631015 38.2810049 52.72551013 38.3125 55.02539062 C38.31902971 56.49478639 38.32428031 57.96418851 38.328125 59.43359375 C38.3404718 60.11707382 38.3528186 60.80055389 38.36553955 61.50474548 C38.34537473 65.85469565 37.62892759 68.52685229 35 72 C32.11528002 74.32380221 30.24413376 74.96448964 26.5625 75.5 C21.80802675 74.83270551 20.32778845 73.40702151 17 70 C15.94163339 66.82490018 15.79756211 64.35717617 15.68359375 61.01953125 C15.64169922 59.85615234 15.59980469 58.69277344 15.55664062 57.49414062 C15.51732422 56.27919922 15.47800781 55.06425781 15.4375 53.8125 C15.39431641 52.58595703 15.35113281 51.35941406 15.30664062 50.09570312 C15.2004691 47.06391619 15.09842048 44.03204685 15 41 C13.02 41 11.04 41 9 41 C8.9906543 41.75619629 8.98130859 42.51239258 8.97167969 43.29150391 C8.917808 46.73665134 8.83419159 50.18046562 8.75 53.625 C8.72873047 55.40970703 8.72873047 55.40970703 8.70703125 57.23046875 C8.4003778 68.20866236 8.4003778 68.20866236 4 73 C0.5905957 75.58644464 -2.8386449 75.36503115 -7 75 C-10.81956929 73.30241365 -12.49929781 71.86440036 -14 68 C-14.26742554 65.1988678 -14.26742554 65.1988678 -14.29052734 61.93383789 C-14.30328705 60.70899185 -14.31604675 59.48414581 -14.32919312 58.22218323 C-14.33141876 56.90233932 -14.33364441 55.58249542 -14.3359375 54.22265625 C-14.34236752 52.85029461 -14.34909604 51.47793434 -14.35610962 50.10557556 C-14.36807201 47.23156557 -14.37179146 44.3576757 -14.37060547 41.48364258 C-14.37040218 37.80704227 -14.39771797 34.13121409 -14.43214989 30.45479679 C-14.45442265 27.62113428 -14.45844294 24.78765762 -14.45738602 21.95391655 C-14.46088308 19.94147393 -14.48254135 17.92908931 -14.50448608 15.91676331 C-14.49833282 14.68876511 -14.49217957 13.46076691 -14.48583984 12.19555664 C-14.48868988 11.11730118 -14.49153992 10.03904572 -14.49447632 8.92811584 C-13.88079031 5.2940819 -12.53094072 3.62838103 -10 1 C-6.80657621 -0.59671189 -3.47454369 -0.37418163 0 0 Z " fill="#FCFCFC" transform="translate(311,194)"/>
<path d="M0 0 C0.99837891 -0.01998047 1.99675781 -0.03996094 3.02539062 -0.06054688 C10.03945539 -0.05593539 15.80545824 0.94886144 21.08325195 5.84960938 C25.80226141 11.16498185 26.87578119 16.04309467 26.8984375 22.96875 C26.9050943 23.68228638 26.9117511 24.39582275 26.91860962 25.13098145 C26.92869637 26.6336816 26.93342787 28.13642619 26.93310547 29.63916016 C26.93748712 31.93076447 26.97386691 34.22045359 27.01171875 36.51171875 C27.01758627 37.97655596 27.0215561 39.44140225 27.0234375 40.90625 C27.03780853 41.58659302 27.05217957 42.26693604 27.06698608 42.96789551 C27.02158998 47.72029566 25.90941842 50.09759818 22.5625 53.4375 C19.46201072 54.98774464 16.98355782 54.72742015 13.5625 54.4375 C10.87110785 52.64323857 8.84015827 50.71515827 6.5625 48.4375 C5.86125 49.05625 5.16 49.675 4.4375 50.3125 C-1.40672768 54.63214655 -7.36162026 55.17505098 -14.4375 54.4375 C-19.16227331 52.77507976 -21.68913159 50.61094833 -24.4375 46.4375 C-26.13522897 40.95949453 -26.53625447 34.91935371 -23.9375 29.6875 C-19.87229652 23.65255875 -14.49285136 21.5038387 -7.51879883 20.02832031 C-4.49909273 19.44315263 -1.47471583 18.9239291 1.5625 18.4375 C-0.04157328 18.41041433 -1.6457785 18.39106517 -3.25 18.375 C-4.14332031 18.36339844 -5.03664062 18.35179687 -5.95703125 18.33984375 C-8.57163791 18.32740033 -8.57163791 18.32740033 -11.4375 19.4375 C-18.60955692 20.12055304 -18.60955692 20.12055304 -21.9375 17.375 C-23.82251272 13.68351675 -24.1069949 11.52885771 -23.4375 7.4375 C-16.99188847 0.40592379 -8.93636037 -0.06321541 0 0 Z " fill="#FCFCFC" transform="translate(209.4375,214.5625)"/>
<path d="M0 0 C3.10986883 1.79928125 5.08427627 3.70119576 7 6.75 C7.66049031 11.20830957 7.28758559 13.23976751 5.0625 17.1875 C1.42776924 20.22880533 -0.22091963 20.39703684 -4.79296875 20.09375 C-7.66369772 19.64662761 -10.27451176 18.74108663 -13 17.75 C-15.86653562 17.4166819 -17.31962472 17.35115932 -19.8125 18.8125 C-21.65150018 21.81297398 -21.30671285 24.31481613 -21 27.75 C-20.34 28.74 -19.68 29.73 -19 30.75 C-13.81991011 31.24050161 -13.81991011 31.24050161 -9 29.75 C-5.76499521 28.1324976 -2.48435432 28.04483305 1 28.75 C3.9375 31.1875 3.9375 31.1875 6 33.75 C6.33 34.08 6.66 34.41 7 34.75 C7.38465619 38.75042442 7.44089273 41.03150815 5.3125 44.5 C-0.76021921 50.40859166 -7.64435691 51.81859609 -15.875 52.125 C-24.28420318 51.95533134 -31.34302756 49.2006254 -37.53125 43.46484375 C-43.39511471 36.61846979 -44.35326854 29.0056851 -44.28125 20.2734375 C-43.59098417 11.62594052 -38.80831568 7.08227622 -32.5 1.5625 C-24.05072602 -4.56322364 -9.25193188 -4.45463387 0 0 Z " fill="#FBFBFB" transform="translate(285,217.25)"/>
<path d="M0 0 C1.22176941 -0.00960754 2.44353882 -0.01921509 3.70233154 -0.02911377 C5.0427634 -0.03396266 6.38319743 -0.03824126 7.72363281 -0.04199219 C9.09645591 -0.04774513 10.46927899 -0.05350285 11.84210205 -0.05926514 C14.72384007 -0.06977713 17.60555019 -0.07561791 20.48730469 -0.07910156 C24.17043427 -0.08457487 27.85319202 -0.1085766 31.53620529 -0.13707352 C34.37417658 -0.15575156 37.21205943 -0.16090831 40.05008698 -0.16243744 C42.06523421 -0.16691793 44.08033402 -0.18554331 46.09539795 -0.20440674 C47.329776 -0.20140564 48.56415405 -0.19840454 49.8359375 -0.1953125 C50.91800476 -0.19895813 52.00007202 -0.20260376 53.1149292 -0.20635986 C57.4685061 0.31617351 60.79727839 1.91960133 64.05175781 4.84863281 C65.71064258 8.25856261 65.71152492 11.48369324 65.17675781 15.16113281 C63.38247378 19.41075289 61.25458057 21.12486378 57.17675781 23.16113281 C54.21740723 23.54208374 54.21740723 23.54208374 50.90527344 23.54931641 C49.66048218 23.55877289 48.41569092 23.56822937 47.13317871 23.57797241 C45.78311849 23.57260236 44.43306119 23.56644932 43.08300781 23.55957031 C41.68965503 23.56159293 40.29630328 23.56450593 38.9029541 23.56826782 C35.98777146 23.57268241 33.07286526 23.56628839 30.15771484 23.55224609 C26.42855067 23.5351543 22.70003429 23.54500019 18.97089386 23.56296349 C16.0951859 23.57382499 13.2196305 23.57034423 10.34391785 23.56258011 C8.96925275 23.56058462 7.59457362 23.56301444 6.21992493 23.57001877 C4.29603352 23.57767132 2.3720933 23.5639316 0.44824219 23.54931641 C-0.64476196 23.54692963 -1.73776611 23.54454285 -2.8638916 23.54208374 C-7.074699 23.00003543 -9.71051539 21.337444 -12.60058594 18.28222656 C-14.81791926 14.43554287 -14.70259832 10.4402044 -13.82324219 6.16113281 C-10.17990047 1.23649355 -5.81720784 0.03681571 0 0 Z " fill="#FFDF5E" transform="translate(236.8232421875,278.8388671875)"/>
<path d="M0 0 C4.33134779 2.80897672 6.18613499 5.69327548 8.375 10.3125 C8.69243164 10.97258057 9.00986328 11.63266113 9.33691406 12.31274414 C10.09695113 13.89466173 10.85166037 15.47914446 11.60253906 17.06542969 C13.2847854 20.59802944 14.99690471 24.11555541 16.7109375 27.6328125 C32.92956901 60.95780145 32.92956901 60.95780145 32 67 C29.87915298 70.40850414 27.8818913 72.81386655 24 74 C20.8349056 74.45944919 19.00766875 74.71830423 16 74 C9.31998856 67.83818409 5.99609681 59.40261987 2.1875 51.3125 C1.47969498 49.82543202 0.77135847 48.33861689 0.0625 46.85205078 C-1.66210496 43.22670593 -3.37180609 39.59455263 -5.07720947 35.96014404 C-6.38726262 33.17739671 -7.71684315 30.40402242 -9.04296875 27.62890625 C-9.86404588 25.87857217 -10.68325533 24.12735989 -11.5 22.375 C-11.86714111 21.60841064 -12.23428223 20.84182129 -12.61254883 20.05200195 C-14.66535835 15.54644514 -15.52582815 12.05170619 -15 7 C-11.1322904 0.78403814 -7.22889473 -0.76093629 0 0 Z " fill="#FF8CD2" transform="translate(359,186)"/>
<path d="M0 0 C4.9715548 2.84661605 8.11266089 6.76725661 9.625 12.3125 C10.27298248 18.33760026 9.62758718 22.92855057 6.625 28.3125 C2.76723731 32.88090318 -0.51407404 34.9684646 -6.4609375 35.68359375 C-17.5692904 35.90787166 -17.5692904 35.90787166 -22.0078125 31.98828125 C-26.18835468 26.86413097 -28.1032759 21.11006965 -27.7578125 14.51171875 C-26.82072291 9.12823468 -24.42233382 4.95188779 -20.3125 1.375 C-14.25973427 -2.87481424 -6.69141927 -3.11345587 0 0 Z " fill="#0B0B0B" transform="translate(209.375,340.6875)"/>
<path d="M0 0 C4.25666533 2.62519081 7.37581669 5.82668909 10.1875 9.9375 C10.80625 10.80375 11.425 11.67 12.0625 12.5625 C13.81638036 17.82414108 14.29469329 23.4816594 13.1875 28.9375 C10.78125 30.76953125 10.78125 30.76953125 8.1875 31.9375 C7.1975 32.4325 7.1975 32.4325 6.1875 32.9375 C6.8475 33.47375 7.5075 34.01 8.1875 34.5625 C10.1875 36.9375 10.1875 36.9375 10.75 39.875 C9.96068557 44.17237858 8.70021998 45.32017923 5.1875 47.9375 C-0.53221045 50.60611871 -5.45890428 52.19014666 -11.8125 51.9375 C-11.79678955 52.51717529 -11.7810791 53.09685059 -11.76489258 53.6940918 C-11.70227209 56.33762739 -11.66342482 58.98100655 -11.625 61.625 C-11.59986328 62.53701172 -11.57472656 63.44902344 -11.54882812 64.38867188 C-11.49423334 69.39319361 -11.48319937 72.90392424 -14.8125 76.9375 C-18.31711275 79.841322 -21.43458133 80.52290729 -25.87890625 80.36328125 C-29.22932914 79.62551136 -30.79226332 77.56992962 -32.8125 74.9375 C-33.86837095 71.76988716 -33.9229146 69.52777981 -33.91796875 66.203125 C-33.93279297 65.07132812 -33.94761719 63.93953125 -33.96289062 62.7734375 C-33.98746725 60.39855895 -33.99293316 58.02339945 -33.97851562 55.6484375 C-34.05960231 48.11655065 -34.05960231 48.11655065 -37.74609375 41.80078125 C-38.76652188 40.84452903 -39.78850053 39.88992687 -40.8125 38.9375 C-44.80488238 32.41660879 -44.58317944 25.41563124 -43.8125 17.9375 C-41.50746393 9.67483224 -36.95584603 4.34498051 -29.71484375 -0.046875 C-21.83078578 -4.25602299 -7.94846271 -3.71822259 0 0 Z M-35.625 6.6875 C-41.69009489 14.34502848 -42.86047855 21.31938575 -41.8125 30.9375 C-39.80610782 38.29427131 -35.81666807 43.22292033 -29.3125 47.1875 C-20.92865225 51.37942388 -10.19734556 51.12789814 -1.25 48.75 C2.87787376 47.30150394 5.59437534 45.56787453 8.1875 41.9375 C8.75254413 38.97101831 8.65046399 37.68338643 7.0625 35.125 C4.33212353 33.39576157 2.35982851 33.61379301 -0.8125 33.9375 C-1.72902344 34.4325 -1.72902344 34.4325 -2.6640625 34.9375 C-6.77667002 36.85173187 -11.37814277 36.37765101 -15.8125 35.9375 C-18.93187969 34.56497293 -20.3022715 33.957957 -21.8125 30.9375 C-20.8838916 30.91244385 -19.9552832 30.8873877 -18.99853516 30.86157227 C-15.55814196 30.76652068 -12.11792287 30.66728293 -8.67773438 30.56518555 C-7.18787359 30.52183411 -5.69796305 30.48015916 -4.20800781 30.44018555 C-2.06820673 30.38248785 0.07134385 30.31879245 2.2109375 30.25390625 C3.49919434 30.21724854 4.78745117 30.18059082 6.11474609 30.14282227 C9.1002682 30.14219325 9.1002682 30.14219325 11.1875 28.9375 C11.86938753 20.88112505 11.70250228 14.83140143 7.0390625 8.03515625 C3.19933955 3.68509038 -1.1749881 1.16205749 -6.8125 -0.0625 C-22.63374884 -1.1900932 -22.63374884 -1.1900932 -35.625 6.6875 Z " fill="#5CE0E5" transform="translate(166.8125,217.0625)"/>
<path d="M0 0 C1.35496631 0.7321394 2.69054864 1.50176026 4 2.3125 C4.62261719 2.663125 5.24523437 3.01375 5.88671875 3.375 C12.05765691 7.2301631 15.66974378 13.04732565 18.375 19.6875 C20.07997993 29.5763836 19.41663572 38.94734852 13.5390625 47.41796875 C12.09364407 49.13853028 10.60111616 50.73707019 9 52.3125 C8.21625 53.116875 7.4325 53.92125 6.625 54.75 C6.08875 55.265625 5.5525 55.78125 5 56.3125 C5.99 56.8075 5.99 56.8075 7 57.3125 C7 57.9725 7 58.6325 7 59.3125 C6.01 59.3125 5.02 59.3125 4 59.3125 C4 60.3025 4 61.2925 4 62.3125 C4.99 62.3125 5.98 62.3125 7 62.3125 C7 62.9725 7 63.6325 7 64.3125 C6.01 64.3125 5.02 64.3125 4 64.3125 C4 65.6325 4 66.9525 4 68.3125 C4.99 68.3125 5.98 68.3125 7 68.3125 C7 68.9725 7 69.6325 7 70.3125 C6.01 70.3125 5.02 70.3125 4 70.3125 C4 72.6225 4 74.9325 4 77.3125 C3.113125 77.745625 2.22625 78.17875 1.3125 78.625 C-1.91970316 80.14306368 -1.91970316 80.14306368 -4.1875 82 C-8.66621698 84.09006793 -13.14457805 83.86574148 -18 83.3125 C-21.1875 81.9375 -21.1875 81.9375 -23 80.3125 C-23 79.6525 -23 78.9925 -23 78.3125 C-24.65 77.9825 -26.3 77.6525 -28 77.3125 C-28 75.6625 -28 74.0125 -28 72.3125 C-28.99 71.9825 -29.98 71.6525 -31 71.3125 C-30.01 71.3125 -29.02 71.3125 -28 71.3125 C-28 69.9925 -28 68.6725 -28 67.3125 C-28.99 67.3125 -29.98 67.3125 -31 67.3125 C-31 66.6525 -31 65.9925 -31 65.3125 C-30.01 65.3125 -29.02 65.3125 -28 65.3125 C-28 63.9925 -28 62.6725 -28 61.3125 C-28.99 61.3125 -29.98 61.3125 -31 61.3125 C-31 60.6525 -31 59.9925 -31 59.3125 C-30.01 59.3125 -29.02 59.3125 -28 59.3125 C-30.00684109 55.74408569 -32.19775989 52.85238012 -35 49.875 C-41.92522229 42.21278158 -43.33465617 35.41640924 -43.2109375 25.30859375 C-42.68095686 17.78090576 -39.17388158 11.72105007 -34 6.3125 C-24.26143694 -1.45086949 -12.01252459 -5.11567857 0 0 Z M-36.37109375 11.9296875 C-41.53284523 19.48045106 -42.0098329 27.78659059 -40.63671875 36.66015625 C-39.06827114 42.70988276 -35.50209103 46.48789851 -31.15625 50.85546875 C-28.83100755 53.50506567 -27.44547757 56.11113781 -26 59.3125 C-22.29108609 59.20201407 -18.58313189 59.07152886 -14.875 58.9375 C-13.30492187 58.89109375 -13.30492187 58.89109375 -11.703125 58.84375 C-2.76540505 58.69111129 -2.76540505 58.69111129 4.94140625 54.6484375 C12.43796047 45.58031649 17.65696411 37.91245692 17.4375 25.80078125 C16.46848723 18.07463482 12.76165337 11.56360407 7.125 6.25 C-6.99818457 -4.61398813 -25.32725579 -1.59064746 -36.37109375 11.9296875 Z " fill="#243648" transform="translate(455,180.6875)"/>
<path d="M0 0 C0.96357422 -0.01224609 1.92714844 -0.02449219 2.91992188 -0.03710938 C3.84998047 -0.03904297 4.78003906 -0.04097656 5.73828125 -0.04296875 C6.59075439 -0.04707764 7.44322754 -0.05118652 8.3215332 -0.05541992 C10.93274398 0.21267983 12.48826119 0.76658532 14.6875 2.1875 C17.15122552 5.88308828 17.26333561 8.89794199 16.6875 13.1875 C15.1875 16.1875 15.1875 16.1875 13.6875 18.1875 C14.3475 18.6825 15.0075 19.1775 15.6875 19.6875 C18.00353377 22.58254221 18.26436905 24.54031487 18.0859375 28.21875 C17.46287793 31.29739729 15.90039435 33.03969078 13.6875 35.1875 C9.91710943 37.07269529 5.33595405 36.37225994 1.1875 36.375 C0.21167969 36.38724609 -0.76414063 36.39949219 -1.76953125 36.41210938 C-2.70152344 36.41404297 -3.63351563 36.41597656 -4.59375 36.41796875 C-5.45033203 36.42207764 -6.30691406 36.42618652 -7.18945312 36.43041992 C-9.3125 36.1875 -9.3125 36.1875 -11.3125 34.1875 C-11.49971852 31.69006138 -11.56829767 29.30561317 -11.54296875 26.80859375 C-11.54251053 26.08132584 -11.54205231 25.35405792 -11.5415802 24.60475159 C-11.53855836 23.06729501 -11.53067405 21.52984148 -11.51831055 19.99243164 C-11.50004573 17.63091265 -11.4978009 15.26978539 -11.49804688 12.90820312 C-11.49313203 11.41666326 -11.48730386 9.92512606 -11.48046875 8.43359375 C-11.47935593 7.72319443 -11.4782431 7.0127951 -11.47709656 6.28086853 C-11.39674824 -1.95759285 -7.12260669 0.00470761 0 0 Z " fill="#040404" transform="translate(235.3125,339.8125)"/>
<path d="M0 0 C0.88845108 -0.01283524 1.77690216 -0.02567047 2.692276 -0.03889465 C3.65161545 -0.04628159 4.6109549 -0.05366852 5.59936523 -0.0612793 C6.59242172 -0.06935104 7.58547821 -0.07742279 8.60862732 -0.08573914 C10.71432757 -0.09957661 12.82005022 -0.11030027 14.92578125 -0.11816406 C18.12145615 -0.13530228 21.31607614 -0.17918307 24.51147461 -0.22338867 C26.56159724 -0.23352266 28.61172864 -0.24203655 30.66186523 -0.2487793 C31.60703506 -0.26628738 32.5522049 -0.28379547 33.52601624 -0.30183411 C42.39766546 -0.27332873 50.57971139 2.21655743 57.12280273 8.43481445 C62.3149559 14.5772556 63.2649831 21.07443432 62.97045898 28.9621582 C61.97358228 37.50829908 58.91896246 42.67992073 52.20483398 47.99731445 C51.67374023 48.38661133 51.14264648 48.7759082 50.59545898 49.17700195 C51.00795898 49.80864258 51.42045898 50.4402832 51.84545898 51.09106445 C53.78977385 54.1030165 55.69700367 57.13592493 57.59545898 60.17700195 C57.96396973 60.75981934 58.33248047 61.34263672 58.7121582 61.94311523 C59.83875087 63.73894193 60.9381361 65.54916725 62.03295898 67.36450195 C62.71229492 68.47180664 63.39163086 69.57911133 64.09155273 70.7199707 C66.31884708 75.83985511 66.35642269 80.02093813 64.47045898 85.36450195 C62.23725728 88.71430452 60.26686524 91.44841229 56.59545898 93.17700195 C51.7886846 93.92519297 47.37884414 93.81109445 42.78295898 92.17700195 C35.87230926 85.85869364 31.20400257 77.02401562 26.27514648 69.15942383 C25.72858398 68.3028418 25.18202148 67.44625977 24.61889648 66.5637207 C24.13340332 65.7924585 23.64791016 65.02119629 23.14770508 64.2265625 C20.70963746 61.0073776 18.41398209 59.44984299 14.59545898 58.17700195 C14.61640625 58.93319824 14.63735352 59.68939453 14.65893555 60.46850586 C14.74236483 63.91286795 14.79420522 67.35701702 14.84545898 70.80200195 C14.89573242 72.58670898 14.89573242 72.58670898 14.94702148 74.4074707 C15.07059341 85.46715768 15.07059341 85.46715768 10.59545898 90.17700195 C7.33940381 93.42618781 4.7487126 93.60922427 0.22045898 93.61450195 C-5.11501635 93.47094656 -8.53271052 93.15072273 -12.40454102 89.17700195 C-14.89650371 84.25497647 -15.78166299 80.66097938 -15.79272461 75.06762695 C-15.80061005 74.05883484 -15.80061005 74.05883484 -15.80865479 73.02966309 C-15.82175152 70.82853277 -15.81315424 68.62813835 -15.80297852 66.42700195 C-15.80500224 64.88435733 -15.80791615 63.34171364 -15.81167603 61.79907227 C-15.81608537 58.57469525 -15.80971343 55.3505685 -15.7956543 52.1262207 C-15.77856302 48.00722326 -15.78841171 43.88881238 -15.80637169 39.76983643 C-15.8172473 36.58695104 -15.81374595 33.40420316 -15.80598831 30.22131348 C-15.80399673 28.70316497 -15.80640873 27.18500371 -15.81342697 25.66687012 C-15.82110426 23.53970589 -15.8093515 21.41347242 -15.79272461 19.28637695 C-15.79033783 18.07949219 -15.78795105 16.87260742 -15.78549194 15.62915039 C-15.21036806 10.41742139 -13.78870937 6.49196189 -9.90454102 2.80200195 C-6.52088556 0.60262591 -3.9481499 0.04980567 0 0 Z M-11.40454102 7.17700195 C-13.42119584 11.22021468 -13.66216281 14.58501183 -13.67919922 19.07519531 C-13.68431015 19.74903763 -13.68942108 20.42287994 -13.69468689 21.11714172 C-13.70853135 23.3338013 -13.7076301 25.55014816 -13.70532227 27.7668457 C-13.70921195 29.31474421 -13.71354718 30.86264165 -13.7183075 32.41053772 C-13.72575857 35.65100569 -13.72548647 38.89136469 -13.72021484 42.13183594 C-13.71442076 46.27562245 -13.73135482 50.4189619 -13.75455952 54.56267452 C-13.76932159 57.7583729 -13.77016523 60.9539642 -13.76704979 64.14969063 C-13.76756173 65.6770472 -13.77277555 67.20440997 -13.78286171 68.73173332 C-13.79525774 70.87125225 -13.78841657 73.009908 -13.77685547 75.14941406 C-13.77748489 76.36455185 -13.77811432 77.57968964 -13.77876282 78.83164978 C-13.25514587 83.51251838 -11.83163483 86.91780153 -8.27954102 90.05200195 C-3.03334512 92.10486122 1.69590582 91.84536325 6.97045898 89.98950195 C9.97115033 87.91759602 11.00903864 86.4410754 12.59545898 83.17700195 C13.00531248 80.08699637 13.00531248 80.08699637 12.88842773 76.7824707 C12.87875977 75.58041992 12.8690918 74.37836914 12.85913086 73.13989258 C12.83399414 71.89401367 12.80885742 70.64813477 12.78295898 69.36450195 C12.76942383 68.09928711 12.75588867 66.83407227 12.74194336 65.53051758 C12.70664217 62.41224552 12.65732718 59.29484154 12.59545898 56.17700195 C22.54345994 58.98284838 25.8426888 63.20979264 30.97045898 71.92700195 C36.94407997 83.41455925 36.94407997 83.41455925 46.59545898 91.17700195 C51.81889579 91.66065351 55.21026483 91.10046472 59.59545898 88.17700195 C62.22693002 85.13003549 63.46102979 83.09019341 64.04858398 79.09887695 C63.40930334 73.56579279 60.90772789 69.8294137 57.97045898 65.17700195 C57.44838867 64.31333008 56.92631836 63.4496582 56.38842773 62.55981445 C53.17654102 57.34148987 49.7061751 52.71977531 45.59545898 48.17700195 C46.46170898 47.99137695 47.32795898 47.80575195 48.22045898 47.61450195 C53.51218899 45.36061695 56.57286423 41.66589358 58.74780273 36.37231445 C60.69159235 29.04503378 60.90027652 19.8806339 57.70483398 12.85668945 C54.19350332 7.54023809 49.67702309 4.77963787 43.59545898 3.17700195 C39.81343161 2.86412198 36.04132873 2.84912822 32.24780273 2.84106445 C31.15834854 2.83440765 30.06889435 2.82775085 28.94642639 2.82089233 C26.64935998 2.81079154 24.35226438 2.80607452 22.05517578 2.80639648 C18.54142188 2.80201251 15.02891367 2.76563448 11.51538086 2.7277832 C9.2803591 2.72191672 7.0453314 2.7179462 4.81030273 2.71606445 C3.76124252 2.70169342 2.71218231 2.68732239 1.6313324 2.67251587 C-5.75417101 2.69336905 -5.75417101 2.69336905 -11.40454102 7.17700195 Z " fill="#151515" transform="translate(52.404541015625,175.822998046875)"/>
<path d="M0 0 C5.93559675 0.85382068 9.09342167 3.57559062 13 8 C18.42519676 15.856786 20.70268179 23.51526251 19 33 C16.58470262 40.03402396 13.08614163 45.66699626 7.515625 50.59765625 C5.74981509 52.12176879 5.74981509 52.12176879 4 55 C0.5303087 56.01612654 -2.91968748 56.17563024 -6.51953125 56.31640625 C-7.54111328 56.35830078 -8.56269531 56.40019531 -9.61523438 56.44335938 C-10.67033203 56.48267578 -11.72542969 56.52199219 -12.8125 56.5625 C-13.88693359 56.60568359 -14.96136719 56.64886719 -16.06835938 56.69335938 C-18.71212082 56.79910983 -21.3559711 56.90120233 -24 57 C-24.4228125 56.08347656 -24.845625 55.16695312 -25.28125 54.22265625 C-26.83554288 51.3083571 -28.09794074 49.62358464 -30.5 47.4375 C-33.22688221 44.83168444 -35.33228504 42.43353079 -37 39 C-37 38.34 -37 37.68 -37 37 C-36.34 37 -35.68 37 -35 37 C-34.29875 37.7425 -33.5975 38.485 -32.875 39.25 C-27.76600413 44.13686561 -23.24570723 46.23343009 -16.125 46.5625 C-9.78386673 46.36961382 -5.38974047 44.11929951 0 41 C0.99 40.67 1.98 40.34 3 40 C4.11474392 38.16189781 4.11474392 38.16189781 5 36 C5.35320312 35.37222656 5.70640625 34.74445313 6.0703125 34.09765625 C9.72028326 27.05456452 10.60507023 19.27012365 8.26953125 11.6015625 C6.20046054 7.1931751 3.24240808 3.60267565 0 0 Z " fill="#FAFAF8" transform="translate(453,183)"/>
<path d="M0 0 C18.05977419 -0.59176445 18.05977419 -0.59176445 26.6875 4.625 C32.16456002 10.25008867 34.3125 15.14605292 34.3125 23.0625 C34.209375 25.021875 34.10625 26.98125 34 29 C26.41 29 18.82 29 11 29 C11 26.03 11 23.06 11 20 C12.65 20 14.3 20 16 20 C15.4225 19.21625 14.845 18.4325 14.25 17.625 C11.83185833 14.05332785 10.45715034 10.22197092 9.02734375 6.171875 C8.07622652 3.67890221 8.07622652 3.67890221 5 2 C3.34450469 1.61500109 1.6777567 1.27206865 0 1 C0 0.67 0 0.34 0 0 Z " fill="#FCFCFC" transform="translate(144,217)"/>
<path d="M0 0 C1.91747229 0.96043905 3.78307076 2.0230764 5.63671875 3.1015625 C5.30671875 4.7515625 4.97671875 6.4015625 4.63671875 8.1015625 C3.83234375 7.9365625 3.02796875 7.7715625 2.19921875 7.6015625 C-2.02215477 7.00908902 -6.1099267 7.01649541 -10.36328125 7.1015625 C-10.36328125 8.7515625 -10.36328125 10.4015625 -10.36328125 12.1015625 C-9.38746094 12.42769531 -8.41164063 12.75382812 -7.40625 13.08984375 C-6.12093614 13.53079084 -4.83578847 13.97222258 -3.55078125 14.4140625 C-2.90818359 14.62740234 -2.26558594 14.84074219 -1.60351562 15.06054688 C4.77465212 17.27472946 4.77465212 17.27472946 6.63671875 20.1015625 C7.54026421 24.90419153 7.31771324 28.95091665 4.82421875 33.1640625 C1.06840012 36.49064472 -2.39434799 36.29011726 -7.23828125 36.3515625 C-8.45257813 36.37734375 -9.666875 36.403125 -10.91796875 36.4296875 C-14.60975546 36.07808877 -16.46504664 35.3760583 -19.36328125 33.1015625 C-20.17578125 30.4140625 -20.17578125 30.4140625 -20.36328125 28.1015625 C-18.61328125 27.4765625 -18.61328125 27.4765625 -16.36328125 27.1015625 C-15.44675781 27.57916016 -15.44675781 27.57916016 -14.51171875 28.06640625 C-12.05720622 29.24903501 -10.44440891 29.33884077 -7.73828125 29.2890625 C-6.57425781 29.27939453 -6.57425781 29.27939453 -5.38671875 29.26953125 C-3.29455445 29.22206883 -3.29455445 29.22206883 -1.36328125 28.1015625 C-1.36328125 26.7815625 -1.36328125 25.4615625 -1.36328125 24.1015625 C-1.94335938 23.91980469 -2.5234375 23.73804688 -3.12109375 23.55078125 C-15.01040639 19.72501233 -15.01040639 19.72501233 -18.23828125 15.8515625 C-19.6872431 12.30965575 -19.83797569 9.89911799 -19.36328125 6.1015625 C-14.91127321 -1.05345042 -7.83472707 -2.97849128 0 0 Z " fill="#0A0A0A" transform="translate(278.36328125,339.8984375)"/>
<path d="M0 0 C3.73119389 1.65830839 5.94648272 3.48620376 8 7 C8.36989022 9.81229514 8.60038059 12.43230942 8.6875 15.25 C8.73874023 16.36761719 8.73874023 16.36761719 8.79101562 17.5078125 C8.87314054 19.33802492 8.93825653 21.16898669 9 23 C9.51820313 22.67644531 10.03640625 22.35289062 10.5703125 22.01953125 C13.76530884 20.67886558 16.41680204 20.69865548 19.875 20.6875 C21.06867188 20.67074219 22.26234375 20.65398437 23.4921875 20.63671875 C27.34704777 21.03594147 29.71503717 21.97482755 33 24 C37.57096264 29.80635795 38.15849762 34.23520767 38.203125 41.43359375 C38.20882507 42.14854507 38.21452515 42.8634964 38.22039795 43.60011292 C38.22982114 45.10880057 38.23637125 46.61750856 38.24023438 48.1262207 C38.24995272 50.42631015 38.2810049 52.72551013 38.3125 55.02539062 C38.31902971 56.49478639 38.32428031 57.96418851 38.328125 59.43359375 C38.3404718 60.11707382 38.3528186 60.80055389 38.36553955 61.50474548 C38.34537473 65.85469565 37.62892759 68.52685229 35 72 C32.11528002 74.32380221 30.24413376 74.96448964 26.5625 75.5 C21.80802675 74.83270551 20.32778845 73.40702151 17 70 C15.94163339 66.82490018 15.79756211 64.35717617 15.68359375 61.01953125 C15.64169922 59.85615234 15.59980469 58.69277344 15.55664062 57.49414062 C15.51732422 56.27919922 15.47800781 55.06425781 15.4375 53.8125 C15.39431641 52.58595703 15.35113281 51.35941406 15.30664062 50.09570312 C15.2004691 47.06391619 15.09842048 44.03204685 15 41 C13.02 41 11.04 41 9 41 C8.9906543 41.75619629 8.98130859 42.51239258 8.97167969 43.29150391 C8.917808 46.73665134 8.83419159 50.18046562 8.75 53.625 C8.72873047 55.40970703 8.72873047 55.40970703 8.70703125 57.23046875 C8.4003778 68.20866236 8.4003778 68.20866236 4 73 C0.5905957 75.58644464 -2.8386449 75.36503115 -7 75 C-10.81956929 73.30241365 -12.49929781 71.86440036 -14 68 C-14.26742554 65.1988678 -14.26742554 65.1988678 -14.29052734 61.93383789 C-14.30328705 60.70899185 -14.31604675 59.48414581 -14.32919312 58.22218323 C-14.33141876 56.90233932 -14.33364441 55.58249542 -14.3359375 54.22265625 C-14.34236752 52.85029461 -14.34909604 51.47793434 -14.35610962 50.10557556 C-14.36807201 47.23156557 -14.37179146 44.3576757 -14.37060547 41.48364258 C-14.37040218 37.80704227 -14.39771797 34.13121409 -14.43214989 30.45479679 C-14.45442265 27.62113428 -14.45844294 24.78765762 -14.45738602 21.95391655 C-14.46088308 19.94147393 -14.48254135 17.92908931 -14.50448608 15.91676331 C-14.49833282 14.68876511 -14.49217957 13.46076691 -14.48583984 12.19555664 C-14.48868988 11.11730118 -14.49153992 10.03904572 -14.49447632 8.92811584 C-13.88079031 5.2940819 -12.53094072 3.62838103 -10 1 C-6.80657621 -0.59671189 -3.47454369 -0.37418163 0 0 Z M-12 7 C-12.76306858 11.54527912 -12.67607435 16.05688575 -12.62890625 20.65625 C-12.6297356 22.00476269 -12.6321975 23.35327527 -12.63621521 24.70178223 C-12.63906852 27.52301597 -12.62442008 30.34345374 -12.59692383 33.16455078 C-12.56283985 36.77287426 -12.56886257 40.37977521 -12.5875864 43.98816681 C-12.59817744 46.77129887 -12.58919991 49.55410243 -12.57420158 52.33720398 C-12.56652996 54.31190674 -12.5738602 56.28664941 -12.58143616 58.26135254 C-12.56559982 59.46610229 -12.54976349 60.67085205 -12.53344727 61.91210938 C-12.52724869 62.96958374 -12.52105011 64.02705811 -12.5146637 65.11657715 C-11.87285534 68.71233279 -10.52708002 70.40872418 -8 73 C-4.92948669 73.87033916 -2.11727296 73.61887037 1 73 C3.80871961 71.10411426 4.7564175 69.97031998 5.57836914 66.69604492 C6.00728975 63.95338699 6.17430212 61.32503235 6.24609375 58.55078125 C6.27896484 57.53822266 6.31183594 56.52566406 6.34570312 55.48242188 C6.40723697 53.35754049 6.46448278 51.23253086 6.51757812 49.10742188 C6.55173828 48.09873047 6.58589844 47.09003906 6.62109375 46.05078125 C6.6461499 45.12950439 6.67120605 44.20822754 6.69702148 43.2590332 C7 41 7 41 9 39 C11.68839385 38.73008094 14.29141936 38.91262643 17 39 C17.00410889 39.85231201 17.00821777 40.70462402 17.01245117 41.58276367 C17.0395042 44.76095348 17.0886643 47.93783292 17.15258789 51.11547852 C17.17570978 52.48775431 17.19015003 53.86020609 17.19555664 55.23266602 C17.20488665 57.21134471 17.24857019 59.18976624 17.29296875 61.16796875 C17.3086792 62.35672607 17.32438965 63.5454834 17.34057617 64.77026367 C18.17939105 68.87862427 19.79884453 70.38120265 23 73 C25.00888517 73.77032815 25.00888517 73.77032815 27 73.625 C27.639375 73.63789063 28.27875 73.65078125 28.9375 73.6640625 C32.2752898 72.58939533 33.79835705 70.68643294 36 68 C36.47714382 65.2253708 36.65878396 63.08086035 36.59375 60.3203125 C36.59379028 59.58932343 36.59383057 58.85833435 36.59387207 58.10519409 C36.58852813 56.563694 36.57099308 55.02219356 36.54199219 53.48095703 C36.50024575 51.13878754 36.50091851 48.79950916 36.5078125 46.45703125 C36.49731417 44.95310528 36.4843726 43.44919397 36.46875 41.9453125 C36.46854858 41.25341827 36.46834717 40.56152405 36.46813965 39.84866333 C36.33419689 34.25892666 35.03519521 29.68275732 31.625 25.1875 C26.85883264 21.70453154 21.73548239 21.17644355 16 22 C12.49374153 23.40515462 9.68159279 25.31840721 7 28 C6.99589111 27.42556152 6.99178223 26.85112305 6.98754883 26.25927734 C6.95444003 23.63017353 6.88378307 21.00333471 6.8125 18.375 C6.80669922 17.47136719 6.80089844 16.56773437 6.79492188 15.63671875 C6.65065889 11.24471239 6.45378925 7.9429793 3.69921875 4.39453125 C0.73266174 1.66190161 0.73266174 1.66190161 -3 1.3125 C-3.639375 1.30863281 -4.27875 1.30476562 -4.9375 1.30078125 C-8.27788768 2.43322329 -10.29345973 3.95859134 -12 7 Z " fill="#131313" transform="translate(311,194)"/>
<path d="M0 0 C4.25666533 2.62519081 7.37581669 5.82668909 10.1875 9.9375 C10.80625 10.80375 11.425 11.67 12.0625 12.5625 C13.81638036 17.82414108 14.29469329 23.4816594 13.1875 28.9375 C10.78125 30.76953125 10.78125 30.76953125 8.1875 31.9375 C7.1975 32.4325 7.1975 32.4325 6.1875 32.9375 C6.8475 33.47375 7.5075 34.01 8.1875 34.5625 C10.1875 36.9375 10.1875 36.9375 10.75 39.875 C9.96068557 44.17237858 8.70021998 45.32017923 5.1875 47.9375 C-3.96361368 52.8836125 -14.71932653 53.51687591 -24.77734375 51.27734375 C-31.81180396 48.77355283 -37.39965619 44.28434787 -41.75 38.25 C-44.92963564 31.32961654 -45.05780415 22.46705189 -43.05859375 15.1953125 C-39.74343292 7.47293786 -35.17528104 2.86834819 -27.8125 -1.0625 C-19.72932296 -3.75689235 -7.71835064 -3.61057814 0 0 Z M-35.625 6.6875 C-41.69009489 14.34502848 -42.86047855 21.31938575 -41.8125 30.9375 C-39.80610782 38.29427131 -35.81666807 43.22292033 -29.3125 47.1875 C-20.92865225 51.37942388 -10.19734556 51.12789814 -1.25 48.75 C2.87787376 47.30150394 5.59437534 45.56787453 8.1875 41.9375 C8.75254413 38.97101831 8.65046399 37.68338643 7.0625 35.125 C4.33212353 33.39576157 2.35982851 33.61379301 -0.8125 33.9375 C-1.72902344 34.4325 -1.72902344 34.4325 -2.6640625 34.9375 C-6.77667002 36.85173187 -11.37814277 36.37765101 -15.8125 35.9375 C-18.93187969 34.56497293 -20.3022715 33.957957 -21.8125 30.9375 C-20.8838916 30.91244385 -19.9552832 30.8873877 -18.99853516 30.86157227 C-15.55814196 30.76652068 -12.11792287 30.66728293 -8.67773438 30.56518555 C-7.18787359 30.52183411 -5.69796305 30.48015916 -4.20800781 30.44018555 C-2.06820673 30.38248785 0.07134385 30.31879245 2.2109375 30.25390625 C3.49919434 30.21724854 4.78745117 30.18059082 6.11474609 30.14282227 C9.1002682 30.14219325 9.1002682 30.14219325 11.1875 28.9375 C11.86938753 20.88112505 11.70250228 14.83140143 7.0390625 8.03515625 C3.19933955 3.68509038 -1.1749881 1.16205749 -6.8125 -0.0625 C-22.63374884 -1.1900932 -22.63374884 -1.1900932 -35.625 6.6875 Z " fill="#1B1C1C" transform="translate(166.8125,217.0625)"/>
<path d="M0 0 C0.99837891 -0.01998047 1.99675781 -0.03996094 3.02539062 -0.06054688 C10.03945539 -0.05593539 15.80545824 0.94886144 21.08325195 5.84960938 C25.80226141 11.16498185 26.87578119 16.04309467 26.8984375 22.96875 C26.9050943 23.68228638 26.9117511 24.39582275 26.91860962 25.13098145 C26.92869637 26.6336816 26.93342787 28.13642619 26.93310547 29.63916016 C26.93748712 31.93076447 26.97386691 34.22045359 27.01171875 36.51171875 C27.01758627 37.97655596 27.0215561 39.44140225 27.0234375 40.90625 C27.03780853 41.58659302 27.05217957 42.26693604 27.06698608 42.96789551 C27.02158998 47.72029566 25.90941842 50.09759818 22.5625 53.4375 C19.46201072 54.98774464 16.98355782 54.72742015 13.5625 54.4375 C10.87110785 52.64323857 8.84015827 50.71515827 6.5625 48.4375 C5.86125 49.05625 5.16 49.675 4.4375 50.3125 C-1.40672768 54.63214655 -7.36162026 55.17505098 -14.4375 54.4375 C-19.16227331 52.77507976 -21.68913159 50.61094833 -24.4375 46.4375 C-26.13522897 40.95949453 -26.53625447 34.91935371 -23.9375 29.6875 C-19.87229652 23.65255875 -14.49285136 21.5038387 -7.51879883 20.02832031 C-4.49909273 19.44315263 -1.47471583 18.9239291 1.5625 18.4375 C-0.04157328 18.41041433 -1.6457785 18.39106517 -3.25 18.375 C-4.14332031 18.36339844 -5.03664062 18.35179687 -5.95703125 18.33984375 C-8.57163791 18.32740033 -8.57163791 18.32740033 -11.4375 19.4375 C-18.60955692 20.12055304 -18.60955692 20.12055304 -21.9375 17.375 C-23.82251272 13.68351675 -24.1069949 11.52885771 -23.4375 7.4375 C-16.99188847 0.40592379 -8.93636037 -0.06321541 0 0 Z M-21.4375 8.4375 C-21.7642107 11.50858055 -21.91888276 13.58800101 -20.375 16.3125 C-17.39295582 18.04400952 -14.8128701 17.67859786 -11.4375 17.4375 C-10.4475 17.1075 -9.4575 16.7775 -8.4375 16.4375 C-6.44193828 16.26843158 -4.43966816 16.17161911 -2.4375 16.125 C-1.385625 16.08761719 -0.33375 16.05023438 0.75 16.01171875 C3.5625 16.4375 3.5625 16.4375 5.4375 18.45703125 C5.80875 19.11058594 6.18 19.76414063 6.5625 20.4375 C5.20318359 20.47617188 5.20318359 20.47617188 3.81640625 20.515625 C-6.05527122 20.97525866 -14.12551576 22.34709104 -21.4375 29.4375 C-24.29292513 34.21329908 -24.13682702 39.12523292 -23.0078125 44.47265625 C-21.80259318 47.97671983 -20.49534381 49.40090494 -17.375 51.375 C-11.62399964 53.33667597 -5.72719786 53.28553624 -0.0625 51.1875 C2.52014747 49.46573502 4.56800553 47.8155511 6.5625 45.4375 C6.5625 44.7775 6.5625 44.1175 6.5625 43.4375 C7.5525 43.4375 8.5425 43.4375 9.5625 43.4375 C9.665625 44.55125 9.76875 45.665 9.875 46.8125 C10.101875 48.00875 10.32875 49.205 10.5625 50.4375 C14.2830836 52.91788907 16.16046571 52.90087203 20.5625 52.4375 C22.88886448 50.91075043 22.88886448 50.91075043 24.5625 48.4375 C25.16179448 45.18800129 25.16179448 45.18800129 25.05859375 41.546875 C25.0607766 40.55170868 25.0607766 40.55170868 25.06300354 39.53643799 C25.06134718 38.1344361 25.04981491 36.73241553 25.02905273 35.33056641 C25.0002759 33.20785184 25.00841098 31.08766671 25.02148438 28.96484375 C25.22990241 17.66792878 25.22990241 17.66792878 20.18164062 7.93310547 C13.73085348 2.25325619 8.57761284 2.07287028 0.3125 2.0625 C-1.20537109 2.02576172 -1.20537109 2.02576172 -2.75390625 1.98828125 C-10.19673266 1.95932084 -15.95693981 2.95693981 -21.4375 8.4375 Z " fill="#272727" transform="translate(209.4375,214.5625)"/>
<path d="M0 0 C3.10986883 1.79928125 5.08427627 3.70119576 7 6.75 C7.66049031 11.20830957 7.28758559 13.23976751 5.0625 17.1875 C1.42776924 20.22880533 -0.22091963 20.39703684 -4.79296875 20.09375 C-7.66369772 19.64662761 -10.27451176 18.74108663 -13 17.75 C-15.86653562 17.4166819 -17.31962472 17.35115932 -19.8125 18.8125 C-21.65150018 21.81297398 -21.30671285 24.31481613 -21 27.75 C-20.34 28.74 -19.68 29.73 -19 30.75 C-13.81991011 31.24050161 -13.81991011 31.24050161 -9 29.75 C-5.76499521 28.1324976 -2.48435432 28.04483305 1 28.75 C3.9375 31.1875 3.9375 31.1875 6 33.75 C6.33 34.08 6.66 34.41 7 34.75 C7.38465619 38.75042442 7.44089273 41.03150815 5.3125 44.5 C-0.76021921 50.40859166 -7.64435691 51.81859609 -15.875 52.125 C-24.28420318 51.95533134 -31.34302756 49.2006254 -37.53125 43.46484375 C-43.39511471 36.61846979 -44.35326854 29.0056851 -44.28125 20.2734375 C-43.59098417 11.62594052 -38.80831568 7.08227622 -32.5 1.5625 C-24.05072602 -4.56322364 -9.25193188 -4.45463387 0 0 Z M-39.4375 10.8125 C-43.18912973 17.86556389 -43.07902416 26.94167944 -40.9375 34.5 C-36.8035513 41.43436556 -32.62515003 46.46271488 -24.8046875 49.125 C-15.79990786 51.13163613 -7.0230655 50.47760289 1 45.75 C4.01517867 43.0219812 4.8484574 41.67819846 5.5 37.6875 C5.18663543 34.70835801 5.18663543 34.70835801 3.5 32.375 C-0.00150501 30.09902175 -2.92838361 30.15622261 -7 30.75 C-7.99 31.245 -7.99 31.245 -9 31.75 C-12.29037992 33.39518996 -15.35182183 32.92372277 -19 32.75 C-20.485 32.255 -20.485 32.255 -22 31.75 C-23.76135233 27.58680358 -23.70458432 22.53494695 -22.0625 18.375 C-18.8120599 15.81404719 -15.07471862 15.53814288 -11 15.75 C-9.65399951 16.39070657 -8.31995426 17.05722083 -7 17.75 C-2.97750004 18.42565429 0.04438124 18.37115219 3.5 16.125 C5.48198314 12.98686002 5.67064058 11.40126535 5 7.75 C1.29135161 2.55789225 -4.00095402 0.37656349 -10 -1.25 C-21.75109137 -2.86712267 -32.10278719 1.5970916 -39.4375 10.8125 Z " fill="#2C2C2C" transform="translate(285,217.25)"/>
<path d="M0 0 C3.13953245 1.29676341 4.53271464 2.24344276 6.3125 5.125 C7.42319442 9.76972212 8.12737793 14.36762726 6.1953125 18.87890625 C3.87848507 22.19436619 1.39778916 23.48134034 -2.4375 24.1875 C-5.89709774 24.36654429 -7.78050513 23.9059369 -10.5 21.75 C-14.33626011 17.53011388 -14.33287241 13.91602081 -14.29296875 8.44921875 C-13.88206478 5.01406155 -12.52072694 3.29830986 -10 1 C-6.80367049 -0.59816475 -3.47700733 -0.36705452 0 0 Z " fill="#F9F9F9" transform="translate(204,346)"/>
<path d="M0 0 C1.35496631 0.7321394 2.69054864 1.50176026 4 2.3125 C4.62261719 2.663125 5.24523437 3.01375 5.88671875 3.375 C12.05765691 7.2301631 15.66974378 13.04732565 18.375 19.6875 C20.07997993 29.5763836 19.41663572 38.94734852 13.5390625 47.41796875 C12.09364407 49.13853028 10.60111616 50.73707019 9 52.3125 C8.21625 53.116875 7.4325 53.92125 6.625 54.75 C6.08875 55.265625 5.5525 55.78125 5 56.3125 C5.99 56.8075 5.99 56.8075 7 57.3125 C7 57.9725 7 58.6325 7 59.3125 C6.01 59.3125 5.02 59.3125 4 59.3125 C4 60.3025 4 61.2925 4 62.3125 C4.99 62.6425 5.98 62.9725 7 63.3125 C5.68 63.3125 4.36 63.3125 3 63.3125 C3 61.9925 3 60.6725 3 59.3125 C2.00202393 59.40337891 2.00202393 59.40337891 0.98388672 59.49609375 C-2.05216588 59.77099317 -5.08857179 60.0417823 -8.125 60.3125 C-9.17171875 60.40789062 -10.2184375 60.50328125 -11.296875 60.6015625 C-16.2117833 61.0370607 -21.05972054 61.44925514 -26 61.3125 C-26.33 64.6125 -26.66 67.9125 -27 71.3125 C-27.33 69.9925 -27.66 68.6725 -28 67.3125 C-28.99 67.3125 -29.98 67.3125 -31 67.3125 C-31 66.6525 -31 65.9925 -31 65.3125 C-30.01 65.3125 -29.02 65.3125 -28 65.3125 C-28 63.9925 -28 62.6725 -28 61.3125 C-28.99 61.3125 -29.98 61.3125 -31 61.3125 C-31 60.6525 -31 59.9925 -31 59.3125 C-30.01 59.3125 -29.02 59.3125 -28 59.3125 C-30.00684109 55.74408569 -32.19775989 52.85238012 -35 49.875 C-41.92522229 42.21278158 -43.33465617 35.41640924 -43.2109375 25.30859375 C-42.68095686 17.78090576 -39.17388158 11.72105007 -34 6.3125 C-24.26143694 -1.45086949 -12.01252459 -5.11567857 0 0 Z M-36.37109375 11.9296875 C-41.53284523 19.48045106 -42.0098329 27.78659059 -40.63671875 36.66015625 C-39.06827114 42.70988276 -35.50209103 46.48789851 -31.15625 50.85546875 C-28.83100755 53.50506567 -27.44547757 56.11113781 -26 59.3125 C-22.29108609 59.20201407 -18.58313189 59.07152886 -14.875 58.9375 C-13.30492187 58.89109375 -13.30492187 58.89109375 -11.703125 58.84375 C-2.76540505 58.69111129 -2.76540505 58.69111129 4.94140625 54.6484375 C12.43796047 45.58031649 17.65696411 37.91245692 17.4375 25.80078125 C16.46848723 18.07463482 12.76165337 11.56360407 7.125 6.25 C-6.99818457 -4.61398813 -25.32725579 -1.59064746 -36.37109375 11.9296875 Z " fill="#2A3948" transform="translate(455,180.6875)"/>
<path d="M0 0 C4.55555556 0.55555556 4.55555556 0.55555556 6 2 C6.28324736 6.38904659 6.23189568 10.79041407 6.25 15.1875 C6.270625 16.42048828 6.29125 17.65347656 6.3125 18.92382812 C6.31765625 20.11814453 6.3228125 21.31246094 6.328125 22.54296875 C6.3374707 23.63633545 6.34681641 24.72970215 6.35644531 25.85620117 C5.94230356 29.50887468 4.9141226 31.87511356 3 35 C-0.20380017 37.13586678 -1.01939967 37.23132175 -4.6875 37.125 C-5.49574219 37.10695313 -6.30398437 37.08890625 -7.13671875 37.0703125 C-7.75160156 37.04710937 -8.36648437 37.02390625 -9 37 C-9.625 35.125 -9.625 35.125 -10 33 C-7.77810176 30.77810176 -5.91517292 30.07401108 -3 29 C-2.970271 27.78884521 -2.970271 27.78884521 -2.93994141 26.55322266 C-2.84494101 22.91014125 -2.73516088 19.26765314 -2.625 15.625 C-2.57859375 13.71847656 -2.57859375 13.71847656 -2.53125 11.7734375 C-2.47324219 9.95585937 -2.47324219 9.95585937 -2.4140625 8.1015625 C-2.3826416 6.98088379 -2.3512207 5.86020508 -2.31884766 4.70556641 C-2 2 -2 2 0 0 Z " fill="#0F0F0F" transform="translate(171,339)"/>
<path d="M0 0 C2.75059381 -0.08107646 5.49879021 -0.14052813 8.25 -0.1875 C9.02730469 -0.21263672 9.80460937 -0.23777344 10.60546875 -0.26367188 C14.08936165 -0.30833717 16.37555072 -0.33277861 19.4921875 1.328125 C21.70215518 3.77855549 21.86732143 5.74937515 22 9 C21.03394425 11.74954328 20.61984486 12.69007757 18 14 C16.62451844 14.08308638 15.24514204 14.10736016 13.8671875 14.09765625 C13.06152344 14.09443359 12.25585938 14.09121094 11.42578125 14.08789062 C10.58402344 14.07951172 9.74226563 14.07113281 8.875 14.0625 C8.02550781 14.05798828 7.17601563 14.05347656 6.30078125 14.04882812 C4.20049091 14.03702874 2.1002367 14.01909306 0 14 C0 9.38 0 4.76 0 0 Z " fill="#EEEEEE" transform="translate(65,198)"/>
<path d="M0 0 C0.66 0 1.32 0 2 0 C2.00586624 0.76785828 2.01173248 1.53571655 2.01777649 2.32684326 C2.07570039 9.56615935 2.14777477 16.80513114 2.23571491 24.04413986 C2.28042681 27.76573264 2.3196808 31.48721575 2.34643555 35.20898438 C2.37246086 38.80128613 2.41285692 42.39316603 2.46318626 45.9852066 C2.47986038 47.35506184 2.49137131 48.72499006 2.49761391 50.09493256 C2.50724809 52.01490344 2.53700622 53.93474133 2.56762695 55.85449219 C2.57873001 56.94703308 2.58983307 58.03957397 2.60127258 59.16522217 C3.04662441 62.33147922 3.77955125 63.73152389 6 66 C8.17403523 66.51922721 8.17403523 66.51922721 10.5 66.3125 C11.2734375 66.28800781 12.046875 66.26351562 12.84375 66.23828125 C15.18084889 66.05644612 15.18084889 66.05644612 18 65 C19.25187598 57.73501483 19.30203239 50.45606172 19.4296875 43.09765625 C19.460625 42.10121094 19.4915625 41.10476562 19.5234375 40.078125 C19.54325684 39.17481445 19.56307617 38.27150391 19.58349609 37.34082031 C20.07818369 34.56059486 20.73517362 33.64775292 23 32 C26.21494057 31.59813243 28.1381629 31.42544194 30.875 33.25 C32 35 32 35 32 39 C31.34 39 30.68 39 30 39 C29.67 37.68 29.34 36.36 29 35 C27.02 35 25.04 35 23 35 C22.9906543 35.75619629 22.98130859 36.51239258 22.97167969 37.29150391 C22.917808 40.73665134 22.83419159 44.18046562 22.75 47.625 C22.72873047 49.40970703 22.72873047 49.40970703 22.70703125 51.23046875 C22.4003778 62.20866236 22.4003778 62.20866236 18 67 C14.5905957 69.58644464 11.1613551 69.36503115 7 69 C3.18357933 67.30381303 1.49161833 65.86680511 0 62 C-0.24050903 59.16522217 -0.24050903 59.16522217 -0.22705078 55.85449219 C-0.22689972 54.61350769 -0.22674866 53.37252319 -0.22659302 52.09393311 C-0.21638061 50.7449121 -0.20594864 49.39589273 -0.1953125 48.046875 C-0.19158049 46.6625387 -0.18873441 45.27819975 -0.18673706 43.89385986 C-0.17911534 40.2573309 -0.15947955 36.62096269 -0.1373291 32.98449707 C-0.11683909 29.27093683 -0.10772861 25.55735052 -0.09765625 21.84375 C-0.07623215 14.56242686 -0.04211401 7.28123599 0 0 Z " fill="#303030" transform="translate(297,200)"/>
<path d="M0 0 C1.9375 1.0625 1.9375 1.0625 3 3 C3.0625 6.4375 3.0625 6.4375 2 10 C-3.54136658 15.00074545 -9.7771917 16 -17 16 C-17 11.71 -17 7.42 -17 3 C-15.55625 2.690625 -14.1125 2.38125 -12.625 2.0625 C-2.17241379 -0.1773399 -2.17241379 -0.1773399 0 0 Z " fill="#FBFBFB" transform="translate(172,251)"/>
<path d="M0 0 C0.66 0.33 1.32 0.66 2 1 C1.67 1.66 1.34 2.32 1 3 C0.84323225 5.69655446 0.74163685 8.37129977 0.68359375 11.0703125 C0.66281265 11.86654022 0.64203156 12.66276794 0.62062073 13.48312378 C0.55515851 16.03032685 0.49625585 18.57763425 0.4375 21.125 C0.3943116 22.85027127 0.35069721 24.57553193 0.30664062 26.30078125 C0.19948055 30.53374685 0.09820377 34.76681753 0 39 C-6.34554343 32.9348652 -8.14702209 28.07092442 -8.375 19.4375 C-8.15033288 10.9782945 -5.61096489 6.21755569 0 0 Z " fill="#F6F8F8" transform="translate(133,222)"/>
<path d="M0 0 C1.58750313 0.00848969 1.58750313 0.00848969 3.20707703 0.01715088 C6.57992201 0.03950152 9.95169605 0.08969724 13.32421875 0.140625 C15.61391693 0.16069162 17.90363179 0.1789421 20.19335938 0.1953125 C25.79984319 0.23936195 31.40570445 0.30626146 37.01171875 0.390625 C37.01171875 0.720625 37.01171875 1.050625 37.01171875 1.390625 C35.71024902 1.40520752 34.4087793 1.41979004 33.06787109 1.43481445 C28.22579883 1.49291434 23.3841859 1.57014691 18.54248047 1.65307617 C16.44945751 1.68627049 14.35634622 1.71431945 12.26318359 1.73706055 C9.24929263 1.77070731 6.23620712 1.82302893 3.22265625 1.87890625 C1.82543839 1.88849113 1.82543839 1.88849113 0.3999939 1.89826965 C-4.72890644 2.01357561 -8.69187475 2.28455598 -12.98828125 5.390625 C-15.86291394 10.02767094 -16.35617875 13.54691954 -16.32885742 18.95654297 C-16.3292955 19.68893692 -16.32973358 20.42133087 -16.33018494 21.17591858 C-16.32810752 23.57849493 -16.30482705 25.9803592 -16.28125 28.3828125 C-16.2756503 30.05575174 -16.27138197 31.72869592 -16.26838684 33.40164185 C-16.2569675 37.79115534 -16.22752563 42.18036802 -16.1942749 46.56976318 C-16.16351105 51.0542799 -16.14986804 55.53884553 -16.13476562 60.0234375 C-16.10265291 68.81263759 -16.0514921 77.6015938 -15.98828125 86.390625 C-19.49226811 82.88663814 -19.12285237 79.46482092 -19.14941406 74.73535156 C-19.15437897 74.06340759 -19.15934387 73.39146362 -19.16445923 72.69915771 C-19.17906106 70.47651136 -19.18588047 68.25393644 -19.19140625 66.03125 C-19.19716052 64.4828898 -19.20291822 62.93452961 -19.2086792 61.38616943 C-19.21918438 58.13797677 -19.22502981 54.88980882 -19.22851562 51.64160156 C-19.23399114 47.49115952 -19.25800077 43.34104706 -19.28648758 39.19070816 C-19.30516823 35.99069281 -19.31032249 32.79075587 -19.3118515 29.59069061 C-19.31486769 28.0613602 -19.32286116 26.53203084 -19.33603668 25.00275421 C-19.35320714 22.85607823 -19.35119047 20.71019448 -19.34472656 18.56347656 C-19.34837219 17.34452698 -19.35201782 16.12557739 -19.35577393 14.86968994 C-18.82159674 9.81261736 -17.27461565 5.94207457 -13.98754883 1.97753906 C-9.40179967 -0.44878324 -5.10758159 -0.10296177 0 0 Z " fill="#010101" transform="translate(55.98828125,176.609375)"/>
<path d="M0 0 C0.99837891 -0.01998047 1.99675781 -0.03996094 3.02539062 -0.06054688 C10.03945539 -0.05593539 15.80545824 0.94886144 21.08325195 5.84960938 C25.71858932 11.07073572 26.84108701 15.41357492 26.5390625 22.26953125 C26.4875 23.56181641 26.4359375 24.85410156 26.3828125 26.18554688 C26.31794582 27.54037597 26.25283864 28.89519358 26.1875 30.25 C26.12920491 31.62430676 26.07190288 32.99865603 26.015625 34.37304688 C25.87434649 37.72841149 25.72294747 41.08300632 25.5625 44.4375 C25.2325 44.4375 24.9025 44.4375 24.5625 44.4375 C24.54791748 43.66148437 24.53333496 42.88546875 24.51831055 42.0859375 C24.44338234 38.53598227 24.34686887 34.98692157 24.25 31.4375 C24.21616211 29.60638672 24.21616211 29.60638672 24.18164062 27.73828125 C23.95631151 16.38922205 23.95631151 16.38922205 18.125 7.0625 C12.01409992 3.18729507 7.47929649 3.07149222 0.3125 3.0625 C-1.20537109 3.02576172 -1.20537109 3.02576172 -2.75390625 2.98828125 C-9.45494117 2.96220718 -13.70737997 3.92679266 -19.4375 7.4375 C-20.76937793 8.54916864 -20.76937793 8.54916864 -20.625 11.375 C-20.77028733 14.54642859 -20.77028733 14.54642859 -18.4375 16.4375 C-14.78825458 16.6521615 -11.48661614 16.44525518 -7.875 15.875 C-4.42863532 15.43637177 -1.81125026 15.69692067 1.5625 16.4375 C1.5625 16.7675 1.5625 17.0975 1.5625 17.4375 C-14.11755952 20.11458333 -14.11755952 20.11458333 -19.4375 19.4375 C-22.7144716 16.73399843 -23.33884941 15.06228708 -24 10.875 C-23.4375 7.4375 -23.4375 7.4375 -21.375 5.1875 C-13.99294977 0.78968284 -8.53458352 -0.06037326 0 0 Z " fill="#4A4A4A" transform="translate(209.4375,214.5625)"/>
<path d="M0 0 C0 0.66 0 1.32 0 2 C-0.9075 2.598125 -1.815 3.19625 -2.75 3.8125 C-7.94135975 7.30668444 -11.49176125 11.8585386 -13 18 C-13.86525783 26.06878984 -13.45224087 33.06784647 -9 40 C-4.62333711 45.2980656 0.26649738 47.92109829 7 49 C16.25405594 49.58755911 25.79176214 49.81090575 33.5625 44.125 C35.18417046 41.72774802 35.68220932 39.86011611 36 37 C36.66 37 37.32 37 38 37 C38.43421101 40.73421466 38.35245269 42.48955128 36.1875 45.625 C27.09565291 52.39931744 16.94300142 53.08868835 6 52 C-2.38362252 50.1332909 -8.94622889 45.23587606 -13.9375 38.3125 C-17.11713564 31.39211654 -17.24530415 22.52955189 -15.24609375 15.2578125 C-12.62801997 9.15924063 -7.55264998 0 0 0 Z " fill="#1B1B1B" transform="translate(139,217)"/>
<path d="M0 0 C3.1754349 1.80815625 4.54402901 3.37101335 5.9375 6.75 C5.2775 7.08 4.6175 7.41 3.9375 7.75 C3.48375 7.1725 3.03 6.595 2.5625 6 C-3.20202171 1.05898139 -10.09013066 -0.93175814 -17.62109375 -0.56640625 C-25.33246262 0.43298716 -31.36911631 3.45850222 -37.0625 8.75 C-41.91256454 15.16460149 -41.61850531 23.01740769 -41.0625 30.75 C-39.41356774 36.33804823 -36.53033066 40.9910527 -32.0625 44.75 C-27.01873005 47.46461439 -21.77056305 49.14915126 -16.0625 49.75 C-16.0625 50.08 -16.0625 50.41 -16.0625 50.75 C-23.13765536 51.56289019 -27.84980775 50.5584615 -33.796875 46.59375 C-39.15224664 42.23558549 -42.24879881 37.40023768 -44.0625 30.75 C-44.85806878 22.77581058 -45.01489899 15.35855839 -40.0625 8.75 C-29.95548512 -2.65278602 -14.30960242 -6.81909206 0 0 Z " fill="#1F1F1F" transform="translate(285.0625,217.25)"/>
<path d="M0 0 C6.36786075 -0.10208207 12.73550763 -0.17174934 19.10400391 -0.21972656 C21.26684454 -0.2397439 23.42963173 -0.2669663 25.59228516 -0.30175781 C28.71530406 -0.35071247 31.8376026 -0.37306817 34.9609375 -0.390625 C36.39280899 -0.42159271 36.39280899 -0.42159271 37.85360718 -0.45318604 C46.76588941 -0.45611216 54.95223112 2.0091239 61.52734375 8.2578125 C67.5713798 15.40805144 67.50141819 22.98840094 67 32 C66.01 32 65.02 32 64 32 C63.94392578 30.7315625 63.94392578 30.7315625 63.88671875 29.4375 C63.41837176 17.66930429 63.41837176 17.66930429 57.1875 8.125 C50.69228606 3.79485738 44.70572656 3.67366824 37.1328125 3.5859375 C36.09808807 3.56657135 35.06336365 3.5472052 33.99728394 3.5272522 C30.70660533 3.46768158 27.41589132 3.42116095 24.125 3.375 C21.88800595 3.33679952 19.65102628 3.29774659 17.4140625 3.2578125 C11.94283642 3.16199862 6.47152305 3.07688569 1 3 C0.67 2.01 0.34 1.02 0 0 Z " fill="#4B4B4B" transform="translate(48,176)"/>
<path d="M0 0 C0.33 0 0.66 0 1 0 C1.309375 1.27875 1.61875 2.5575 1.9375 3.875 C3.69034594 9.27819016 6.95946538 12.60025882 10.94140625 16.54296875 C13.22578558 19.26948602 14.08673097 21.58881676 15 25 C15.639375 24.8453125 16.27875 24.690625 16.9375 24.53125 C21.73125455 23.69968033 26.55168232 23.60731263 31.40625 23.39453125 C38.60627897 23.39164244 38.60627897 23.39164244 44.84375 20.43359375 C48.65438059 15.8410649 52.01517432 11.17186384 55 6 C55.66 6.99 56.32 7.98 57 9 C55.92027262 10.4194169 54.83604137 11.8354083 53.75 13.25 C53.14671875 14.03890625 52.5434375 14.8278125 51.921875 15.640625 C50.06817005 17.91631157 48.11101046 19.96371558 46 22 C46.66 22.33 47.32 22.66 48 23 C48 23.66 48 24.32 48 25 C47.01 25 46.02 25 45 25 C45 25.99 45 26.98 45 28 C45.99 28.33 46.98 28.66 48 29 C46.68 29 45.36 29 44 29 C44 27.68 44 26.36 44 25 C43.00202393 25.09087891 43.00202393 25.09087891 41.98388672 25.18359375 C38.94783412 25.45849317 35.91142821 25.7292823 32.875 26 C31.82828125 26.09539062 30.7815625 26.19078125 29.703125 26.2890625 C24.7882167 26.7245607 19.94027946 27.13675514 15 27 C14.67 30.3 14.34 33.6 14 37 C13.67 35.68 13.34 34.36 13 33 C12.01 33 11.02 33 10 33 C10 32.34 10 31.68 10 31 C10.99 31 11.98 31 13 31 C13 29.68 13 28.36 13 27 C12.01 27 11.02 27 10 27 C10 26.34 10 25.68 10 25 C10.99 25 11.98 25 13 25 C10.99315891 21.43158569 8.80224011 18.53988012 6 15.5625 C3.00061878 12.23169544 0.46871431 9.30822865 -1 5 C-0.6875 2.125 -0.6875 2.125 0 0 Z " fill="#263748" transform="translate(414,215)"/>
<path d="M0 0 C3.73119389 1.65830839 5.94648272 3.48620376 8 7 C8.36989022 9.81229514 8.60038059 12.43230942 8.6875 15.25 C8.73874023 16.36761719 8.73874023 16.36761719 8.79101562 17.5078125 C8.87314054 19.33802492 8.93825653 21.16898669 9 23 C9.51820313 22.67644531 10.03640625 22.35289062 10.5703125 22.01953125 C13.76530884 20.67886558 16.41680204 20.69865548 19.875 20.6875 C21.06867188 20.67074219 22.26234375 20.65398437 23.4921875 20.63671875 C27.35288038 21.03654552 29.71620388 21.95949085 33 24 C35.375 27.1875 35.375 27.1875 37 30 C36.34 31.32 35.68 32.64 35 34 C34.4121875 32.3603125 34.4121875 32.3603125 33.8125 30.6875 C32.27825814 27.07107276 30.619806 25.67067969 27 24 C26.34 23.67 25.68 23.34 25 23 C18.4088213 22.18113666 14.44425923 23.29790372 9 27 C8.01 27.66 7.02 28.32 6 29 C5.9906543 28.39003174 5.98130859 27.78006348 5.97167969 27.15161133 C5.91778674 24.37110513 5.83417931 21.59224738 5.75 18.8125 C5.73582031 17.85279297 5.72164063 16.89308594 5.70703125 15.90429688 C5.5560362 11.54053995 5.40039538 8.69830344 3.19921875 4.859375 C0.51047567 2.58612152 -1.53955518 2.35649759 -5.02734375 2.55859375 C-8.04044578 3.23281262 -9.85556944 4.85556944 -12 7 C-12 3 -12 3 -10.5 1.25 C-7.00739298 -0.49630351 -3.79031248 -0.55873132 0 0 Z " fill="#2C2C2C" transform="translate(311,194)"/>
<path d="M0 0 C0 1.65 0 3.3 0 5 C-9.24 5 -18.48 5 -28 5 C-28 3.68 -28 2.36 -28 1 C-18.66013591 -0.20514375 -9.39792784 -0.09213655 0 0 Z " fill="#F4F5F6" transform="translate(457,252)"/>
<path d="M0 0 C9.24 0 18.48 0 28 0 C27.34 0.66 26.68 1.32 26 2 C26.99 2.66 27.98 3.32 29 4 C29 4.66 29 5.32 29 6 C28.46375 5.67 27.9275 5.34 27.375 5 C24.3838974 3.74058838 22.22270017 3.73144165 19 4 C18.3915625 4.32742187 17.783125 4.65484375 17.15625 4.9921875 C13.03701306 6.91748303 8.436986 6.56556422 4 6 C1.3125 4.125 1.3125 4.125 0 2 C0 1.34 0 0.68 0 0 Z " fill="#2C3535" transform="translate(147,248)"/>
<path d="M0 0 C1.93719378 -0.05406122 3.87481921 -0.09282025 5.8125 -0.125 C6.89144531 -0.14820313 7.97039062 -0.17140625 9.08203125 -0.1953125 C12 0 12 0 15 2 C14.25 6.75 14.25 6.75 12 9 C9.1796875 9.1953125 9.1796875 9.1953125 5.875 9.125 C4.77929688 9.10695313 3.68359375 9.08890625 2.5546875 9.0703125 C1.71164063 9.04710937 0.86859375 9.02390625 0 9 C0 6.03 0 3.06 0 0 Z " fill="#ECECEC" transform="translate(231,361)"/>
<path d="M0 0 C2.75059381 -0.08107646 5.49879021 -0.14052813 8.25 -0.1875 C9.02730469 -0.21263672 9.80460937 -0.23777344 10.60546875 -0.26367188 C14.08936165 -0.30833717 16.37555072 -0.33277861 19.4921875 1.328125 C21.70215518 3.77855549 21.86732143 5.74937515 22 9 C21.03394425 11.74954328 20.61984486 12.69007757 18 14 C16.62451844 14.08308638 15.24514204 14.10736016 13.8671875 14.09765625 C13.06152344 14.09443359 12.25585938 14.09121094 11.42578125 14.08789062 C10.58402344 14.07951172 9.74226563 14.07113281 8.875 14.0625 C8.02550781 14.05798828 7.17601563 14.05347656 6.30078125 14.04882812 C4.20049091 14.03702874 2.1002367 14.01909306 0 14 C0 9.38 0 4.76 0 0 Z M2 2 C2 5.3 2 8.6 2 12 C4.45862401 12.05383848 6.9160755 12.09359038 9.375 12.125 C10.07367188 12.14175781 10.77234375 12.15851563 11.4921875 12.17578125 C13.32897486 12.19344267 15.16601963 12.10303261 17 12 C19.31563087 10.11499729 19.31563087 10.11499729 19.25 7 C19.31563087 3.88500271 19.31563087 3.88500271 17 2 C14.41935871 1.85502015 11.95056116 1.81322455 9.375 1.875 C8.66859375 1.88402344 7.9621875 1.89304688 7.234375 1.90234375 C5.48943902 1.92592397 3.74467705 1.96179539 2 2 Z " fill="#030303" transform="translate(65,198)"/>
<path d="M0 0 C0 0.33 0 0.66 0 1 C-1.01707031 1.02126953 -1.01707031 1.02126953 -2.0546875 1.04296875 C-10.63272212 1.48256332 -17.07675853 3.79007516 -23.75 9.25 C-29.47259719 16.24428545 -32.89795714 21.89864605 -34 31 C-34.33 31 -34.66 31 -35 31 C-35.69947683 22.823893 -34.7888312 16.78996115 -30 10 C-21.08115432 0.09224466 -12.56978222 -0.4367878 0 0 Z " fill="#F5BC67" transform="translate(446,178)"/>
<path d="M0 0 C1.79158489 -0.02696365 3.58328473 -0.04637917 5.375 -0.0625 C6.37273437 -0.07410156 7.37046875 -0.08570313 8.3984375 -0.09765625 C11 0 11 0 13 1 C13.125 3.875 13.125 3.875 13 7 C11 9 11 9 8.3984375 9.1953125 C7.40070313 9.17210937 6.40296875 9.14890625 5.375 9.125 C3.87066406 9.09792969 3.87066406 9.09792969 2.3359375 9.0703125 C1.56507813 9.04710937 0.79421875 9.02390625 0 9 C0 6.03 0 3.06 0 0 Z " fill="#ECECEC" transform="translate(231,346)"/>
<path d="M0 0 C0 1.32 0 2.64 0 4 C-9.35912329 4.99263429 -18.60394198 5.10731538 -28 5 C-28 3.68 -28 2.36 -28 1 C-18.6587308 0.38673965 -9.36749815 -0.1820896 0 0 Z " fill="#EBECEE" transform="translate(457,246)"/>
<path d="M0 0 C0 1.32 0 2.64 0 4 C-9.24 4.66 -18.48 5.32 -28 6 C-28 4.68 -28 3.36 -28 2 C-18.63873691 0.77085408 -9.46576558 -0.36799953 0 0 Z " fill="#EBEDEE" transform="translate(457,240)"/>
<path d="M0 0 C1.74216797 0.02707031 1.74216797 0.02707031 3.51953125 0.0546875 C4.84017578 0.08949219 4.84017578 0.08949219 6.1875 0.125 C6.1875 0.455 6.1875 0.785 6.1875 1.125 C5.13691406 1.27195313 4.08632813 1.41890625 3.00390625 1.5703125 C-7.57622523 3.19754025 -15.2500908 5.44208676 -22.25 14.0625 C-27.26613672 21.43428103 -27.31773721 29.46665122 -27.8125 38.125 C-30.45492277 35.48257723 -30.11102198 34.18087947 -30.125 30.5 C-29.94095138 21.42748592 -27.1190891 14.7176331 -20.8125 8.125 C-14.23273028 2.87975147 -8.53636691 -0.17245186 0 0 Z " fill="#202A32" transform="translate(441.8125,178.875)"/>
<path d="M0 0 C6.27 0 12.54 0 19 0 C19 1.32 19 2.64 19 4 C15.70670174 5.96661413 13.18703427 6.27055005 9.375 6.25 C8.41335938 6.25515625 7.45171875 6.2603125 6.4609375 6.265625 C4 6 4 6 2 4 C1.34 2.68 0.68 1.36 0 0 Z " fill="#364657" transform="translate(433,258)"/>
<path d="M0 0 C0.66 0 1.32 0 2 0 C2.4359501 4.35950104 2.23867835 6.57653841 0.0625 10.4375 C-3.57223076 13.47880533 -5.22091963 13.64703684 -9.79296875 13.34375 C-12.66369772 12.89662761 -15.27451176 11.99108663 -18 11 C-20.83086082 10.67083014 -22.3167556 10.62303757 -24.8125 12 C-26.73618446 15.23988962 -26.18282384 18.2825819 -26 22 C-26.66 22.33 -27.32 22.66 -28 23 C-29.55024464 19.89951072 -29.28992015 17.42105782 -29 14 C-27.5625 11.125 -27.5625 11.125 -25 9 C-21.26679712 7.95196323 -17.60296779 7.1888983 -14.046875 8.98828125 C-11.47581868 10.25908962 -9.60020408 10.20000537 -6.75 10.125 C-5.1825 10.08375 -3.615 10.0425 -2 10 C-1.34 6.7 -0.68 3.4 0 0 Z " fill="#303030" transform="translate(290,224)"/>
<path d="M0 0 C2.4375 1.8125 2.4375 1.8125 4 4 C4 4.99 4 5.98 4 7 C-0.95 7 -5.9 7 -11 7 C-9.30676242 0.22704966 -6.989962 -0.85841639 0 0 Z " fill="#0C1818" transform="translate(155,229)"/>
<path d="M0 0 C0.33 0 0.66 0 1 0 C1.09922585 4.18084291 1.17163374 8.36105371 1.21972656 12.54272461 C1.23978421 13.96374457 1.26703778 15.38468259 1.30175781 16.80541992 C1.35054011 18.85355895 1.37302539 20.90060275 1.390625 22.94921875 C1.41157227 24.17987061 1.43251953 25.41052246 1.45410156 26.6784668 C0.91705347 30.6067137 -0.24036676 32.21246252 -3 35 C-6.10048928 36.55024464 -8.57894218 36.28992015 -12 36 C-14.9375 34.25 -14.9375 34.25 -17 32 C-17 30.68 -17 29.36 -17 28 C-17.99 27.67 -18.98 27.34 -20 27 C-19.67 26.34 -19.34 25.68 -19 25 C-18.01 25 -17.02 25 -16 25 C-15.67 27.31 -15.34 29.62 -15 32 C-11.44646071 33.1845131 -8.72986522 33.26641894 -5 33 C-2.88745071 31.59163381 -2.21344325 30.67052415 -1.44946289 28.27050781 C-0.89519175 25.4705504 -0.78149245 22.77492289 -0.68359375 19.921875 C-0.64169922 18.76171875 -0.59980469 17.6015625 -0.55664062 16.40625 C-0.51732422 15.1996875 -0.47800781 13.993125 -0.4375 12.75 C-0.39431641 11.52796875 -0.35113281 10.3059375 -0.30664062 9.046875 C-0.20062645 6.0313608 -0.09856064 3.01576552 0 0 Z " fill="#141414" transform="translate(235,233)"/>
<path d="M0 0 C1.58750313 0.00848969 1.58750313 0.00848969 3.20707703 0.01715088 C6.57992201 0.03950152 9.95169605 0.08969724 13.32421875 0.140625 C15.61391693 0.16069162 17.90363179 0.1789421 20.19335938 0.1953125 C25.79984319 0.23936195 31.40570445 0.30626146 37.01171875 0.390625 C37.01171875 0.720625 37.01171875 1.050625 37.01171875 1.390625 C35.71024902 1.40520752 34.4087793 1.41979004 33.06787109 1.43481445 C28.22579883 1.49291434 23.3841859 1.57014691 18.54248047 1.65307617 C16.44945751 1.68627049 14.35634622 1.71431945 12.26318359 1.73706055 C9.24929263 1.77070731 6.23620712 1.82302893 3.22265625 1.87890625 C1.82543839 1.88849113 1.82543839 1.88849113 0.3999939 1.89826965 C-4.78639391 2.01486802 -8.5148339 2.47208136 -12.98828125 5.390625 C-14.72915702 7.59300679 -14.72915702 7.59300679 -15.86328125 10.078125 C-16.27320313 10.88636719 -16.683125 11.69460937 -17.10546875 12.52734375 C-17.39679687 13.14222656 -17.688125 13.75710937 -17.98828125 14.390625 C-19.15311893 10.89611196 -18.49468751 9.53873509 -17.16796875 6.20703125 C-12.76348432 -0.57470802 -7.35096623 -0.14818529 0 0 Z " fill="#030303" transform="translate(55.98828125,176.609375)"/>
<path d="M0 0 C3.3 0 6.6 0 10 0 C10 0.33 10 0.66 10 1 C7.03 1 4.06 1 1 1 C1 2.65 1 4.3 1 6 C2.98 6 4.96 6 7 6 C7 6.33 7 6.66 7 7 C5.02 7 3.04 7 1 7 C1 8.32 1 9.64 1 11 C8.92 11 16.84 11 25 11 C25.33 11.99 25.66 12.98 26 14 C25.01 14.495 25.01 14.495 24 15 C24 14.01 24 13.02 24 12 C17.73 12 11.46 12 5 12 C5 12.66 5 13.32 5 14 C5.99 14.33 6.98 14.66 8 15 C7.01 15.33 6.02 15.66 5 16 C4.67 15.01 4.34 14.02 4 13 C2.35 12.67 0.7 12.34 -1 12 C-1 10.35 -1 8.7 -1 7 C-1.99 6.67 -2.98 6.34 -4 6 C-2.68 6 -1.36 6 0 6 C0 4.02 0 2.04 0 0 Z " fill="#1B2D40" transform="translate(428,246)"/>
<path d="M0 0 C0.33 0.66 0.66 1.32 1 2 C-3.21443299 8.77319588 -3.21443299 8.77319588 -7 11 C-12.49079245 11.78743923 -18.88063815 12.22194368 -23.8125 9.3125 C-26 7 -26 7 -26.375 4.25 C-26.25125 3.5075 -26.1275 2.765 -26 2 C-25.773125 2.61875 -25.54625 3.2375 -25.3125 3.875 C-23.51452118 6.78601333 -22.3145721 7.15372627 -19 8 C-13.3014407 8.59929498 -8.87284059 8.32779357 -4 5 C-2.73195434 2.9664052 -2.73195434 2.9664052 -2 1 C-1.34 0.67 -0.68 0.34 0 0 Z " fill="#151515" transform="translate(66,258)"/>
<path d="M0 0 C1.20628008 2.33214148 2.1654738 4.49642139 3 7 C9.62233205 9.67711296 16.80421648 10.25548638 23.5 7.625 C26.04384762 6.09448852 26.04384762 6.09448852 28 4 C29.32 4 30.64 4 32 4 C30.68068596 6.63862808 29.20135456 7.1659324 26.625 8.5625 C25.83351562 8.99691406 25.04203125 9.43132812 24.2265625 9.87890625 C19.18814815 12.41579207 14.53364971 12.47480614 9 12 C4.33926805 10.36011283 1.58520944 8.23974349 -1 4 C-0.75 1.6875 -0.75 1.6875 0 0 Z " fill="#202020" transform="translate(186,257)"/>
<path d="M0 0 C-0.34455198 3.10096781 -0.84817294 4.79937138 -2.75 7.3125 C-5 9 -5 9 -7.625 9.375 C-10 9 -10 9 -12 7 C-11.8125 5 -11.8125 5 -11 3 C-7.25593545 0.50395696 -4.45848315 0 0 0 Z " fill="#313131" transform="translate(216,245)"/>
<path d="M0 0 C0.66 0 1.32 0 2 0 C2.43421101 3.73421466 2.35245269 5.48955128 0.1875 8.625 C-9.16974489 15.59706482 -18.85401388 15.50345734 -30 15 C-30 14.67 -30 14.34 -30 14 C-29.43603516 13.93006836 -28.87207031 13.86013672 -28.29101562 13.78808594 C-25.69184875 13.45707001 -23.09617441 13.1036923 -20.5 12.75 C-19.613125 12.64042969 -18.72625 12.53085937 -17.8125 12.41796875 C-12.16827331 11.62943708 -6.61187283 10.5621115 -2 7 C-0.75199451 4.5875375 -0.41999202 2.72994815 0 0 Z " fill="#242D2D" transform="translate(175,254)"/>
<path d="M0 0 C2.91927604 1.3961755 4.72202996 2.72202996 7 5 C7.22705078 7.06298828 7.22705078 7.06298828 7.1953125 9.5703125 C7.18886719 10.46621094 7.18242187 11.36210937 7.17578125 12.28515625 C7.15902344 13.22230469 7.14226562 14.15945312 7.125 15.125 C7.11597656 16.06988281 7.10695313 17.01476562 7.09765625 17.98828125 C7.07404522 20.32577292 7.04111516 22.66276123 7 25 C6.67 25 6.34 25 6 25 C5.97421875 23.83082031 5.9484375 22.66164062 5.921875 21.45703125 C5.86557633 19.90881774 5.80822938 18.3606421 5.75 16.8125 C5.73582031 16.04357422 5.72164063 15.27464844 5.70703125 14.48242188 C5.54001903 10.59103713 5.23538537 8.39418114 3.19921875 4.984375 C0.99655554 2.62572577 0.99655554 2.62572577 -2.9375 2.4375 C-6.96731175 2.67100311 -9.1313507 4.1313507 -12 7 C-12 3 -12 3 -10.5 1.25 C-7.01278666 -0.49360667 -3.78554 -0.57197026 0 0 Z " fill="#0B0B0B" transform="translate(311,194)"/>
<path d="M0 0 C2.64 0.33 5.28 0.66 8 1 C7.67 1.99 7.34 2.98 7 4 C4.525 3.01 4.525 3.01 2 2 C2 9.92 2 17.84 2 26 C1.34 26.33 0.68 26.66 0 27 C0 18.09 0 9.18 0 0 Z " fill="#050505" transform="translate(65,232)"/>
<path d="M0 0 C0.66 0.99 1.32 1.98 2 3 C0.92027262 4.4194169 -0.16395863 5.8354083 -1.25 7.25 C-2.15492188 8.43335938 -2.15492188 8.43335938 -3.078125 9.640625 C-4.93182995 11.91631157 -6.88898954 13.96371558 -9 16 C-8.34 16.33 -7.68 16.66 -7 17 C-7 17.66 -7 18.32 -7 19 C-7.99 19 -8.98 19 -10 19 C-10 19.99 -10 20.98 -10 22 C-9.01 22.33 -8.02 22.66 -7 23 C-8.32 23 -9.64 23 -11 23 C-11.84285832 20.30285339 -12.29804837 18.75564024 -12 16 C-10.5072555 13.77195703 -8.79833271 11.98398901 -6.92578125 10.06640625 C-4.09269481 7.02644128 -2.0692914 3.5855003 0 0 Z " fill="#2C3D4E" transform="translate(469,221)"/>
<path d="M0 0 C2.16054365 2.16054365 4.29746109 4.32094486 6.375 6.5625 C12.42771516 12.18287837 19.08016706 12.91070259 27 14 C27 14.33 27 14.66 27 15 C18.72166733 15.6303299 12.65320672 15.26220097 6 10 C3.72282531 7.84540614 1.62605753 5.69096579 0 3 C0 2.01 0 1.02 0 0 Z " fill="#091818" transform="translate(126,253)"/>
<path d="M0 0 C4.50703648 1.50234549 6.41112851 5.11309355 8.8125 8.9375 C9.23208984 9.57107422 9.65167969 10.20464844 10.08398438 10.85742188 C11.14420878 12.51849833 12.08160364 14.2564981 13 16 C12.67 16.99 12.34 17.98 12 19 C8.89226955 16.09121918 6.58780725 13.09310993 4.3125 9.5 C3.71050781 8.5615625 3.10851562 7.623125 2.48828125 6.65625 C1.1978598 4.3531356 0.45548177 2.57499025 0 0 Z " fill="#1F1F1F" transform="translate(73,234)"/>
<path d="M0 0 C2 3 2 3 3.1875 5.1875 C4.95953366 7.34389337 4.95953366 7.34389337 8.25 7.3125 C11.97953766 7.04789537 11.97953766 7.04789537 15.5625 6.4375 C19.00886468 5.99887177 21.62624974 6.25942067 25 7 C25 7.33 25 7.66 25 8 C9.31994048 10.67708333 9.31994048 10.67708333 4 10 C1.09200217 7.4555019 0.09297943 6.04601863 -0.25 2.1875 C-0.1675 1.465625 -0.085 0.74375 0 0 Z " fill="#464646" transform="translate(186,224)"/>
<path d="M0 0 C0.66 0 1.32 0 2 0 C6.12664708 6.96968415 5.12051775 14.10054195 4.6875 21.9375 C4.62414337 23.30266524 4.56228082 24.66790068 4.50195312 26.03320312 C4.34929495 29.35645416 4.18152317 32.67822137 4 36 C3.67 36 3.34 36 3 36 C2.98018066 35.22922119 2.96036133 34.45844238 2.93994141 33.66430664 C2.84395546 30.13006151 2.73457671 26.59634883 2.625 23.0625 C2.5940625 21.85013672 2.563125 20.63777344 2.53125 19.38867188 C2.3124075 12.65926491 1.72818565 6.51230935 0 0 Z " fill="#565656" transform="translate(231,223)"/>
<path d="M0 0 C3.00099588 -0.10890711 5.99796378 -0.18773555 9 -0.25 C9.83917969 -0.28351563 10.67835938 -0.31703125 11.54296875 -0.3515625 C17.54768606 -0.44465889 21.992987 0.58835879 27 4 C29 6.25 29 6.25 30 8 C26.61071441 8 25.79270803 7.41233384 23.0625 5.5625 C17.92448823 2.08765967 13.36469501 1.79004858 7.25 1.4375 C6.55261719 1.39431641 5.85523438 1.35113281 5.13671875 1.30664062 C3.42468078 1.20110404 1.71236439 1.1001009 0 1 C0 0.67 0 0.34 0 0 Z " fill="#191919" transform="translate(202,215)"/>
<path d="M0 0 C0 0.66 0 1.32 0 2 C-1.6850839 3.32463815 -3.46699122 4.43367753 -5.2734375 5.5859375 C-8.15224244 7.94369178 -8.87533249 10.15790626 -9.4140625 13.796875 C-9.48367187 14.77140625 -9.55328125 15.7459375 -9.625 16.75 C-9.69976562 17.73484375 -9.77453125 18.7196875 -9.8515625 19.734375 C-9.90054688 20.48203125 -9.94953125 21.2296875 -10 22 C-12.36092149 19.63907851 -12.31949234 19.03749516 -12.375 15.8125 C-12.24475299 10.74914742 -11.02570774 8.06081828 -8 4 C-2.87179487 0 -2.87179487 0 0 0 Z " fill="#1C1C1C" transform="translate(196,237)"/>
<path d="M0 0 C17.44186047 -1.04651163 17.44186047 -1.04651163 25 5 C26.26171875 7.171875 26.26171875 7.171875 27 9 C26.01 9.495 26.01 9.495 25 10 C24.54625 9.4225 24.0925 8.845 23.625 8.25 C16.85870739 2.45032062 8.65091749 1.32893222 0 1 C0 0.67 0 0.34 0 0 Z " fill="#1D1D1D" transform="translate(264,215)"/>
<path d="M0 0 C0.33 0.66 0.66 1.32 1 2 C-2.08227709 2.22655901 -5.1657016 2.42803465 -8.25 2.625 C-9.12269531 2.68945312 -9.99539063 2.75390625 -10.89453125 2.8203125 C-11.73886719 2.871875 -12.58320313 2.9234375 -13.453125 2.9765625 C-14.22817383 3.02893066 -15.00322266 3.08129883 -15.80175781 3.13525391 C-18.30804237 2.9810467 -19.84839873 2.25581508 -22 1 C-14.63959083 0.20274098 -7.40239645 -0.12886183 0 0 Z " fill="#314153" transform="translate(456,244)"/>
<path d="M0 0 C5.61 0 11.22 0 17 0 C14 3 14 3 11.9140625 3.36328125 C7.52279737 3.26586411 3.99217633 3.06047811 0 1 C0 0.67 0 0.34 0 0 Z " fill="#F6F7F8" transform="translate(434,259)"/>
<path d="M0 0 C0.66 0 1.32 0 2 0 C1.34 6.6 0.68 13.2 0 20 C-2 18 -2 18 -2.265625 15.390625 C-2.21383648 4.98113208 -2.21383648 4.98113208 0 0 Z " fill="#2F3537" transform="translate(414,197)"/>
<path d="M0 0 C1.485 0.99 1.485 0.99 3 2 C3.29296875 5.0390625 3.29296875 5.0390625 3.1875 8.625 C3.16042969 9.81351563 3.13335937 11.00203125 3.10546875 12.2265625 C3.07066406 13.14179688 3.03585938 14.05703125 3 15 C2.01 15 1.02 15 0 15 C0 10.05 0 5.1 0 0 Z " fill="#383838" transform="translate(112,193)"/>
<path d="M0 0 C5.61 0 11.22 0 17 0 C12.46563193 3.40077605 12.46563193 3.40077605 8.5 3.3125 C7.7471875 3.30863281 6.994375 3.30476562 6.21875 3.30078125 C3.78939106 2.97144914 2.11777285 2.20809315 0 1 C0 0.67 0 0.34 0 0 Z " fill="#BBEEF0" transform="translate(148,249)"/>
<path d="M0 0 C-0.33 0.66 -0.66 1.32 -1 2 C-3.48310209 2.53336322 -5.86367897 2.93258396 -8.375 3.25 C-9.40367187 3.4046875 -9.40367187 3.4046875 -10.453125 3.5625 C-14.33728404 4.07635762 -15.63384164 4.24410557 -19 2 C-12.53991163 0.04978464 -6.7281627 -0.22262303 0 0 Z " fill="#DDDDDD" transform="translate(212,232)"/>
<path d="M0 0 C0.33 0.99 0.66 1.98 1 3 C-2.63 3 -6.26 3 -10 3 C-9.67 2.01 -9.34 1.02 -9 0 C-5.93109813 -1.53445094 -3.29905734 -0.54984289 0 0 Z " fill="#5FC3C7" transform="translate(156,232)"/>
<path d="M0 0 C0.33 0 0.66 0 1 0 C1.99 5.94 2.98 11.88 4 18 C3.01 18 2.02 18 1 18 C-0.2039337 14.24600202 -0.09877617 10.66782588 -0.0625 6.75 C-0.05347656 5.48671875 -0.04445313 4.2234375 -0.03515625 2.921875 C-0.02355469 1.95765625 -0.01195313 0.9934375 0 0 Z " fill="#363636" transform="translate(123,235)"/>
<path d="M0 0 C1.485 0.99 1.485 0.99 3 2 C7.85342006 2.23869279 12.22024321 1.95595136 17 1 C14.57799944 3.65266728 12.75511984 4.84784243 9.0625 5.16796875 C8.0415625 5.17763672 8.0415625 5.17763672 7 5.1875 C6.319375 5.20167969 5.63875 5.21585938 4.9375 5.23046875 C3 5 3 5 0 3 C0 2.01 0 1.02 0 0 Z " fill="#222222" transform="translate(263,246)"/>
<path d="M0 0 C0.66 0 1.32 0 2 0 C2.41699136 4.16991358 2.3941082 7.08001603 -0.0625 10.5 C-3 13 -3 13 -6.8125 12.875 C-7.864375 12.58625 -8.91625 12.2975 -10 12 C-10 11.67 -10 11.34 -10 11 C-7.36 10.67 -4.72 10.34 -2 10 C-1.34 6.7 -0.68 3.4 0 0 Z " fill="#3A3A3A" transform="translate(290,224)"/>
<path d="M0 0 C3 1 3 1 4.36328125 2.55078125 C6.64924208 4.5748659 8.18889659 4.3043287 11.1875 4.1875 C12.08855469 4.16042969 12.98960937 4.13335937 13.91796875 4.10546875 C14.60503906 4.07066406 15.29210937 4.03585937 16 4 C16 4.66 16 5.32 16 6 C12.34711807 7.21762731 9.84245864 7.39075851 6 7 C3.55067148 5.56676846 2.01753066 4.06673873 0 2 C0 1.34 0 0.68 0 0 Z " fill="#222222" transform="translate(328,262)"/>
<path d="M0 0 C3.3 0 6.6 0 10 0 C10 0.33 10 0.66 10 1 C7.03 1 4.06 1 1 1 C1 2.65 1 4.3 1 6 C2.98 6 4.96 6 7 6 C7 6.33 7 6.66 7 7 C5.02 7 3.04 7 1 7 C0.67 8.32 0.34 9.64 0 11 C-0.33 10.01 -0.66 9.02 -1 8 C-1.99 7.34 -2.98 6.68 -4 6 C-2.68 6 -1.36 6 0 6 C0 4.02 0 2.04 0 0 Z " fill="#06192E" transform="translate(428,246)"/>
<path d="M0 0 C2.33944736 0.28730055 4.6739143 0.61936779 7 1 C7 1.33 7 1.66 7 2 C5.02 2 3.04 2 1 2 C0.67 5.3 0.34 8.6 0 12 C-0.33 10.68 -0.66 9.36 -1 8 C-1.99 8 -2.98 8 -4 8 C-4 7.34 -4 6.68 -4 6 C-3.01 6 -2.02 6 -1 6 C-1.020625 5.195625 -1.04125 4.39125 -1.0625 3.5625 C-1 1 -1 1 0 0 Z " fill="#3F4E5E" transform="translate(428,240)"/>
<path d="M0 0 C0.99 0.33 1.98 0.66 3 1 C-2 7.57142857 -2 7.57142857 -7 9 C-7.33 8.01 -7.66 7.02 -8 6 C-7.05125 5.566875 -6.1025 5.13375 -5.125 4.6875 C-1.79958063 3.20697799 -1.79958063 3.20697799 0 0 Z " fill="#202020" transform="translate(114,260)"/>
<path d="M0 0 C0.66 0.33 1.32 0.66 2 1 C1.401875 1.86625 0.80375 2.7325 0.1875 3.625 C-1.82044534 6.62619944 -3.44655098 9.73775706 -5 13 C-6 10 -6 10 -4.75 6.5 C-3.32677386 3.65354771 -2.41672888 1.95639957 0 0 Z " fill="#1A1A1A" transform="translate(43,178)"/>
<path d="M0 0 C-3 2 -3 2 -6.5625 3.5 C-9.99005769 4.74653251 -9.99005769 4.74653251 -12 7 C-12 3 -12 3 -10.5 1.25 C-6.87770971 -0.56114514 -4.02559319 -0.20127966 0 0 Z " fill="#2A2A2A" transform="translate(311,194)"/>
<path d="M0 0 C1.20628008 2.33214148 2.1654738 4.49642139 3 7 C6.51190809 8.22969878 6.51190809 8.22969878 10 9 C8.02 9.99 8.02 9.99 6 11 C0.25791855 6.60180995 0.25791855 6.60180995 -0.9375 3.8125 C-1 2 -1 2 0 0 Z " fill="#3B3B3B" transform="translate(186,257)"/>
<path d="M0 0 C0.66 0 1.32 0 2 0 C3.21380846 5.34075724 3.21380846 5.34075724 2.25 8.3125 C1 10 1 10 -2 11 C-1.34 7.37 -0.68 3.74 0 0 Z " fill="#1F1F1F" transform="translate(84,201)"/>
<path d="M0 0 C0.99 1.485 0.99 1.485 2 3 C4.78796888 6.00807169 7.17089886 8.43999583 11 10 C7.75 10.3125 7.75 10.3125 4 10 C1.15751732 7.449054 0.08981203 6.0103853 -0.25 2.1875 C-0.1675 1.465625 -0.085 0.74375 0 0 Z " fill="#1D1D1D" transform="translate(186,224)"/>
<path d="M0 0 C0.74958984 0.05220703 1.49917969 0.10441406 2.27148438 0.15820312 C4.11887082 0.28763784 5.96574371 0.42436518 7.8125 0.5625 C7.8125 0.8925 7.8125 1.2225 7.8125 1.5625 C-1.5925 2.0575 -1.5925 2.0575 -11.1875 2.5625 C-11.1875 1.9025 -11.1875 1.2425 -11.1875 0.5625 C-7.35939179 -0.71353607 -3.95274893 -0.30033987 0 0 Z " fill="#5C5D5D" transform="translate(150.1875,215.4375)"/>
<path d="M0 0 C0.226875 0.61875 0.45375 1.2375 0.6875 1.875 C2.38416443 4.6219805 4.05251711 4.86635273 7 6 C7.33 6.99 7.66 7.98 8 9 C2.25 7.25 2.25 7.25 0 5 C-0.125 2.375 -0.125 2.375 0 0 Z " fill="#2B2B2B" transform="translate(40,260)"/>
<path d="M0 0 C0.99 0.33 1.98 0.66 3 1 C2.67 1.33 2.34 1.66 2 2 C2.66 2.33 3.32 2.66 4 3 C4 3.66 4 4.32 4 5 C3.01 5 2.02 5 1 5 C1 5.99 1 6.98 1 8 C1.99 8.33 2.98 8.66 4 9 C2.68 9 1.36 9 0 9 C-1.125 2.25 -1.125 2.25 0 0 Z " fill="#485766" transform="translate(458,235)"/>
<path d="M0 0 C3.2682346 3.14718888 6.1310659 6.49352499 9 10 C6 10 6 10 4.39453125 8.57421875 C3.61142578 7.64029297 3.61142578 7.64029297 2.8125 6.6875 C2.01779297 5.76517578 2.01779297 5.76517578 1.20703125 4.82421875 C0 3 0 3 0 0 Z " fill="#191F1F" transform="translate(126,253)"/>
<path d="M0 0 C-0.66 1.32 -1.32 2.64 -2 4 C-3.65 4 -5.3 4 -7 4 C-7 3.01 -7 2.02 -7 1 C-4.53721199 -0.231394 -2.7204945 -0.07159196 0 0 Z " fill="#DEDEDE" transform="translate(213,248)"/>
<path d="M0 0 C0.33 0 0.66 0 1 0 C1.04241723 2.33294775 1.04092937 4.66702567 1 7 C0 8 0 8 -2.5625 8.0625 C-3.366875 8.041875 -4.17125 8.02125 -5 8 C-5 7.34 -5 6.68 -5 6 C-3.68 6 -2.36 6 -1 6 C-1.020625 5.195625 -1.04125 4.39125 -1.0625 3.5625 C-1 1 -1 1 0 0 Z " fill="#354556" transform="translate(458,251)"/>
<path d="M0 0 C0.66 0 1.32 0 2 0 C5.11450382 4.15267176 5.11450382 4.15267176 4.6875 7.3125 C4.460625 7.869375 4.23375 8.42625 4 9 C0 3.375 0 3.375 0 0 Z " fill="#171717" transform="translate(85,252)"/>
<path d="M0 0 C0.66 0 1.32 0 2 0 C3.06775224 1.96466413 4.06553465 3.96855359 5 6 C4 8 4 8 2 9 C1.34 6.03 0.68 3.06 0 0 Z " fill="#292929" transform="translate(109,186)"/>
<path d="M0 0 C1.32 0 2.64 0 4 0 C2.3584951 3.2830098 -0.82902851 4.27037919 -4 6 C-4.66 5.34 -5.32 4.68 -6 4 C-5.195625 3.525625 -4.39125 3.05125 -3.5625 2.5625 C-1.15246512 1.23099846 -1.15246512 1.23099846 0 0 Z " fill="#323232" transform="translate(214,261)"/>
<path d="M0 0 C0.66 0 1.32 0 2 0 C2.36923077 5.53846154 2.36923077 5.53846154 0.5 7.875 C-0.2425 8.431875 -0.2425 8.431875 -1 9 C-2.60031344 5.79937313 -1.03173691 3.27728194 0 0 Z " fill="#2E2E2E" transform="translate(175,254)"/>
<path d="M0 0 C0.66 0 1.32 0 2 0 C1.01 3.3 0.02 6.6 -1 10 C-1.66 9.01 -2.32 8.02 -3 7 C-1.59459459 1.59459459 -1.59459459 1.59459459 0 0 Z " fill="#363636" transform="translate(245,226)"/>
<path d="M0 0 C0 0.33 0 0.66 0 1 C-1.28745036 1.38922918 -2.58019597 1.76098036 -3.875 2.125 C-4.59429687 2.33382812 -5.31359375 2.54265625 -6.0546875 2.7578125 C-6.69664062 2.83773437 -7.33859375 2.91765625 -8 3 C-8.66 2.34 -9.32 1.68 -10 1 C-6.21812119 -0.83691257 -4.05431692 -1.15837626 0 0 Z " fill="#353535" transform="translate(265,216)"/>
<path d="M0 0 C0.99 0 1.98 0 3 0 C3.33 2.64 3.66 5.28 4 8 C3.34 7.67 2.68 7.34 2 7 C2 5.68 2 4.36 2 3 C1.01 2.67 0.02 2.34 -1 2 C-0.67 1.34 -0.34 0.68 0 0 Z " fill="#1B1B1B" transform="translate(216,258)"/>
<path d="M0 0 C2.5 2.3125 2.5 2.3125 5 5 C5 5.99 5 6.98 5 8 C2.5 6.25 2.5 6.25 0 4 C0 2.68 0 1.36 0 0 Z " fill="#323232" transform="translate(246,255)"/>
<path d="M0 0 C3.73487777 0.4979837 5.81237635 0.87491756 9 3 C9 3.66 9 4.32 9 5 C6.03 4.01 3.06 3.02 0 2 C0 1.34 0 0.68 0 0 Z " fill="#1E1E1E" transform="translate(167,249)"/>
</svg>
